SplineFontDB: 3.2
FontName: Meadowlark
FullName: Meadowlark
FamilyName: Meadowlark
Weight: Book
Copyright: Generated by Glyphter
Version: 1.0
ItalicAngle: 0
UnderlinePosition: 10
UnderlineWidth: 0
Ascent: 1024
Descent: 0
InvalidEm: 0
sfntRevision: 0x00010000
LayerCount: 2
Layer: 0 1 "Back" 1
Layer: 1 1 "Fore" 0
XUID: [1021 703 -1605407759 15032759]
StyleMap: 0x0040
FSType: 8
OS2Version: 1
OS2_WeightWidthSlopeOnly: 0
OS2_UseTypoMetrics: 0
CreationTime: 1648824617
ModificationTime: 1664917298
PfmFamily: 17
TTFWeight: 400
TTFWidth: 5
LineGap: 92
VLineGap: 0
Panose: 2 0 5 3 0 0 0 0 0 0
OS2TypoAscent: 1024
OS2TypoAOffset: 0
OS2TypoDescent: 0
OS2TypoDOffset: 0
OS2TypoLinegap: 92
OS2WinAscent: 1041
OS2WinAOffset: 0
OS2WinDescent: 12
OS2WinDOffset: 0
HheadAscent: 1024
HheadAOffset: 0
HheadDescent: 0
HheadDOffset: 0
OS2SubXSize: 649
OS2SubYSize: 716
OS2SubXOff: 0
OS2SubYOff: 143
OS2SupXSize: 649
OS2SupYSize: 716
OS2SupXOff: 0
OS2SupYOff: 491
OS2StrikeYSize: 50
OS2StrikeYPos: 264
OS2Vendor: 'PfEd'
OS2CodePages: 00000001.00000000
OS2UnicodeRanges: 00000000.00000000.00000000.00000000
DEI: 91125
ShortTable: maxp 16
  1
  0
  39
  162
  9
  0
  0
  2
  0
  10
  10
  0
  255
  0
  0
  0
EndShort
LangName: 1033 "" "" "Regular" "Meadowlark" "" "Version 1.0" "" "" "" "" "Generated by svg2ttf from Fontello project." "http://fontello.com"
Encoding: UnicodeBmp
UnicodeInterp: none
NameList: AGL For New Fonts
DisplaySize: -48
AntiAlias: 1
FitToEm: 0
WinInfo: 57 19 6
BeginChars: 65536 42

StartChar: A
Encoding: 65 65 1
Width: 1024
GlyphClass: 1
Flags: W
LayerCount: 2
Fore
SplineSet
1014 863 m 1,0,1
 1038 913 1038 913 1006 949.5 c 128,-1,2
 974 986 974 986 921 970 c 1,3,-1
 513 811 l 1,4,-1
 104 970 l 1,5,6
 51 986 51 986 19 949.5 c 128,-1,7
 -13 913 -13 913 11 863 c 2,8,-1
 447 88 l 2,9,10
 471 49 471 49 512.5 49 c 128,-1,11
 554 49 554 49 578 88 c 2,12,-1
 1014 863 l 1,13,14
 1014 863 1014 863 1014 863 c 1,0,1
903 860 m 1,15,16
 880 852 880 852 722 790 c 2,17,-1
 540 719 l 2,18,19
 512 709 512 709 485 719 c 2,20,-1
 122 860 l 1,21,-1
 513 166 l 1,22,-1
 903 860 l 1,23,24
 903 860 903 860 903 860 c 1,15,16
EndSplineSet
Validated: 37
EndChar

StartChar: B
Encoding: 66 66 2
Width: 1024
GlyphClass: 1
Flags: W
LayerCount: 2
Fore
SplineSet
920 976 m 1,0,1
 973 992 973 992 1005 955.5 c 128,-1,2
 1037 919 1037 919 1014 869 c 1,3,-1
 578 81 l 2,4,5
 554 43 554 43 512 43 c 128,-1,6
 470 43 470 43 446 81 c 2,7,-1
 10 869 l 1,8,9
 -13 919 -13 919 19 955.5 c 128,-1,10
 51 992 51 992 104 976 c 1,11,-1
 484 826 l 2,12,13
 512 815 512 815 540 826 c 2,14,-1
 920 976 l 1,15,16
 920 976 920 976 920 976 c 1,0,1
EndSplineSet
Validated: 37
EndChar

StartChar: C
Encoding: 67 67 3
Width: 1024
GlyphClass: 1
Flags: W
LayerCount: 2
Fore
SplineSet
1021 960 m 1,0,1
 1028 978 1028 978 1021 995 c 128,-1,2
 1014 1012 1014 1012 996 1020 c 128,-1,3
 978 1028 978 1028 960.5 1021 c 128,-1,4
 943 1014 943 1014 935 996 c 2,5,-1
 701 450 l 1,6,-1
 699 450 l 2,7,8
 673 450 673 450 650 441 c 1,9,-1
 441 650 l 1,10,11
 450 673 450 673 450 699 c 0,12,13
 449 751 449 751 414 786 c 128,-1,14
 379 821 379 821 326 823 c 0,15,16
 274 821 274 821 239 786 c 128,-1,17
 204 751 204 751 202 699 c 0,18,19
 202 673 202 673 211.5 650.5 c 128,-1,20
 221 628 221 628 238 611 c 1,21,-1
 4 65 l 2,22,23
 -3 47 -3 47 4 30 c 128,-1,24
 11 13 11 13 29 5 c 128,-1,25
 47 -3 47 -3 64.5 4 c 128,-1,26
 82 11 82 11 90 29 c 2,27,-1
 324 575 l 1,28,-1
 326 575 l 2,29,30
 352 575 352 575 375 584 c 1,31,-1
 584 375 l 1,32,33
 575 352 575 352 575 326 c 0,34,35
 576 274 576 274 611 239 c 128,-1,36
 646 204 646 204 699 202 c 0,37,38
 751 204 751 204 786 239 c 128,-1,39
 821 274 821 274 823 326 c 0,40,41
 823 352 823 352 813.5 374.5 c 128,-1,42
 804 397 804 397 787 414 c 1,43,-1
 1021 960 l 1,44,45
 1021 960 1021 960 1021 960 c 1,0,1
EndSplineSet
Validated: 37
EndChar

StartChar: D
Encoding: 68 68 4
Width: 1024
GlyphClass: 1
Flags: W
LayerCount: 2
Fore
SplineSet
157 926 m 1,0,1
 140 932 140 932 127 921.5 c 128,-1,2
 114 911 114 911 117 893 c 2,3,-1
 283 120 l 2,4,5
 289 99 289 99 308 96.5 c 128,-1,6
 327 94 327 94 338 113 c 2,7,-1
 510 465 l 1,8,-1
 887 573 l 2,9,10
 907 581 907 581 908 600 c 128,-1,11
 909 619 909 619 890 629 c 2,12,-1
 157 926 l 1,13,14
 157 926 157 926 157 926 c 1,0,1
193 1015 m 1,15,16
 239 996 239 996 559 866 c 2,17,-1
 926 718 l 1,18,19
 1008 676 1008 676 1003.5 594.5 c 128,-1,20
 999 513 999 513 913 481 c 1,21,-1
 578 385 l 1,22,-1
 424 71 l 1,23,24
 378 -8 378 -8 296.5 1.5 c 128,-1,25
 215 11 215 11 189 100 c 1,26,-1
 23 873 l 1,27,28
 11 950 11 950 65 995 c 128,-1,29
 119 1040 119 1040 193 1015 c 1,30,31
 193 1015 193 1015 193 1015 c 1,15,16
EndSplineSet
Validated: 37
EndChar

StartChar: E
Encoding: 69 69 5
Width: 1024
GlyphClass: 1
Flags: W
LayerCount: 2
Fore
SplineSet
143 839 m 1,0,1
 45 833 45 833 11 751.5 c 128,-1,2
 -23 670 -23 670 42 596 c 1,3,-1
 411 227 l 2,4,5
 455 185 455 185 512 185 c 128,-1,6
 569 185 569 185 613 227 c 2,7,-1
 982 596 l 1,8,9
 1047 670 1047 670 1013 751.5 c 128,-1,10
 979 833 979 833 881 839 c 1,11,-1
 143 839 l 1,12,13
 143 839 143 839 143 839 c 1,0,1
EndSplineSet
Validated: 37
EndChar

StartChar: F
Encoding: 70 70 6
Width: 1024
GlyphClass: 1
Flags: W
LayerCount: 2
Fore
SplineSet
0 912 m 1,0,1
 1 960 1 960 32.5 991.5 c 128,-1,2
 64 1023 64 1023 112 1024 c 2,3,-1
 912 1024 l 2,4,5
 960 1023 960 1023 991.5 991.5 c 128,-1,6
 1023 960 1023 960 1024 912 c 2,7,-1
 1024 112 l 2,8,9
 1023 64 1023 64 991.5 32.5 c 128,-1,10
 960 1 960 1 912 0 c 2,11,-1
 112 0 l 2,12,13
 64 1 64 1 32.5 32.5 c 128,-1,14
 1 64 1 64 0 112 c 2,15,-1
 0 912 l 1,16,17
 0 912 0 912 0 912 c 1,0,1
112 928 m 1,18,19
 105 928 105 928 100.5 923.5 c 128,-1,20
 96 919 96 919 96 912 c 2,21,-1
 96 112 l 2,22,23
 96 105 96 105 100.5 100.5 c 128,-1,24
 105 96 105 96 112 96 c 2,25,-1
 912 96 l 2,26,27
 919 96 919 96 923.5 100.5 c 128,-1,28
 928 105 928 105 928 112 c 2,29,-1
 928 912 l 2,30,31
 928 919 928 919 923.5 923.5 c 128,-1,32
 919 928 919 928 912 928 c 2,33,-1
 112 928 l 1,34,35
 112 928 112 928 112 928 c 1,18,19
417 864 m 1,36,37
 406 864 406 864 326 864 c 2,38,-1
 236 864 l 2,39,40
 209 863 209 863 190.5 845 c 128,-1,41
 172 827 172 827 172 800 c 2,42,-1
 172 224 l 2,43,44
 172 197 172 197 190.5 179 c 128,-1,45
 209 161 209 161 236 160 c 2,46,-1
 417 160 l 2,47,48
 444 161 444 161 462 179 c 128,-1,49
 480 197 480 197 481 224 c 2,50,-1
 481 800 l 2,51,52
 480 827 480 827 462 845 c 128,-1,53
 444 863 444 863 417 864 c 1,54,55
 417 864 417 864 417 864 c 1,36,37
788 864 m 1,56,57
 777 864 777 864 698 864 c 2,58,-1
 607 864 l 2,59,60
 580 863 580 863 562 845 c 128,-1,61
 544 827 544 827 543 800 c 2,62,-1
 543 224 l 2,63,64
 544 197 544 197 562 179 c 128,-1,65
 580 161 580 161 607 160 c 2,66,-1
 788 160 l 2,67,68
 815 161 815 161 833.5 179 c 128,-1,69
 852 197 852 197 852 224 c 2,70,-1
 852 800 l 2,71,72
 852 827 852 827 833.5 845 c 128,-1,73
 815 863 815 863 788 864 c 1,74,75
 788 864 788 864 788 864 c 1,56,57
EndSplineSet
Validated: 5
EndChar

StartChar: G
Encoding: 71 71 7
Width: 1024
GlyphClass: 1
Flags: W
LayerCount: 2
Fore
SplineSet
725 993 m 1,0,1
 745 993 745 993 759 979 c 2,2,-1
 1010 728 l 2,3,4
 1024 713 1024 713 1024 694 c 128,-1,5
 1024 675 1024 675 1010 660 c 2,6,-1
 514 165 l 1,7,-1
 476 127 l 1,8,-1
 945 127 l 2,9,10
 965 126 965 126 979 112.5 c 128,-1,11
 993 99 993 99 993 79 c 128,-1,12
 993 59 993 59 979 45.5 c 128,-1,13
 965 32 965 32 945 31 c 2,14,-1
 234 31 l 2,15,16
 214 31 214 31 200 45 c 2,17,-1
 14 231 l 2,18,19
 0 245 0 245 0 264 c 128,-1,20
 0 283 0 283 14 298 c 2,21,-1
 196 484 l 1,22,-1
 691 979 l 2,23,24
 705 993 705 993 725 993 c 1,25,26
 725 993 725 993 725 993 c 1,0,1
338 127 m 1,27,28
 343 132 343 132 375 163 c 2,29,-1
 413 200 l 1,30,-1
 230 382 l 1,31,-1
 116 265 l 1,32,-1
 253 127 l 1,33,-1
 338 127 l 1,34,35
 338 127 338 127 338 127 c 1,27,28
298 450 m 1,36,37
 324 477 324 477 511 664 c 2,38,-1
 725 877 l 1,39,-1
 908 694 l 1,40,-1
 481 267 l 1,41,-1
 298 450 l 1,42,43
 298 450 298 450 298 450 c 1,36,37
EndSplineSet
Validated: 5
EndChar

StartChar: H
Encoding: 72 72 8
Width: 1024
GlyphClass: 1
Flags: W
LayerCount: 2
Fore
SplineSet
96 835 m 1,0,1
 96 821 96 821 96 721 c 2,2,-1
 96 607 l 1,3,-1
 928 607 l 1,4,-1
 928 696 l 1,5,-1
 546 696 l 2,6,7
 518 696 518 696 496 714 c 2,8,-1
 355 835 l 1,9,-1
 96 835 l 1,10,11
 96 835 96 835 96 835 c 1,0,1
0 856 m 1,12,13
 1 888 1 888 22.5 909.5 c 128,-1,14
 44 931 44 931 76 931 c 2,15,-1
 362 931 l 2,16,17
 390 931 390 931 412 913 c 2,18,-1
 553 792 l 1,19,-1
 948 792 l 2,20,21
 980 791 980 791 1001.5 770 c 128,-1,22
 1023 749 1023 749 1024 716 c 2,23,-1
 1024 169 l 2,24,25
 1023 137 1023 137 1001.5 115.5 c 128,-1,26
 980 94 980 94 948 93 c 2,27,-1
 76 93 l 2,28,29
 44 94 44 94 22.5 115.5 c 128,-1,30
 1 137 1 137 0 169 c 2,31,-1
 0 856 l 1,32,33
 0 856 0 856 0 856 c 1,12,13
EndSplineSet
Validated: 5
EndChar

StartChar: I
Encoding: 73 73 9
Width: 1024
GlyphClass: 1
Flags: W
LayerCount: 2
Fore
SplineSet
0 873 m 1,0,1
 1 894 1 894 14.5 907.5 c 128,-1,2
 28 921 28 921 48 921 c 2,3,-1
 976 921 l 2,4,5
 996 921 996 921 1009.5 907.5 c 128,-1,6
 1023 894 1023 894 1023 873.5 c 128,-1,7
 1023 853 1023 853 1009.5 839.5 c 128,-1,8
 996 826 996 826 976 825 c 2,9,-1
 48 825 l 2,10,11
 28 826 28 826 14.5 839.5 c 128,-1,12
 1 853 1 853 0 873 c 1,13,14
 0 873 0 873 0 873 c 1,0,1
0 512 m 1,15,16
 1 533 1 533 14.5 546.5 c 128,-1,17
 28 560 28 560 48 560 c 2,18,-1
 976 560 l 2,19,20
 996 560 996 560 1009.5 546.5 c 128,-1,21
 1023 533 1023 533 1023 512.5 c 128,-1,22
 1023 492 1023 492 1009.5 478.5 c 128,-1,23
 996 465 996 465 976 464 c 2,24,-1
 48 464 l 2,25,26
 28 465 28 465 14.5 478.5 c 128,-1,27
 1 492 1 492 0 512 c 1,28,29
 0 512 0 512 0 512 c 1,15,16
0 152 m 1,30,31
 1 172 1 172 14.5 185.5 c 128,-1,32
 28 199 28 199 48 200 c 2,33,-1
 976 200 l 2,34,35
 996 199 996 199 1009.5 185.5 c 128,-1,36
 1023 172 1023 172 1023 151.5 c 128,-1,37
 1023 131 1023 131 1009.5 117.5 c 128,-1,38
 996 104 996 104 976 104 c 2,39,-1
 48 104 l 2,40,41
 28 104 28 104 14.5 117.5 c 128,-1,42
 1 131 1 131 0 152 c 1,43,44
 0 152 0 152 0 152 c 1,30,31
EndSplineSet
Validated: 5
EndChar

StartChar: J
Encoding: 74 74 10
Width: 1024
GlyphClass: 1
Flags: W
LayerCount: 2
Fore
SplineSet
529 876 m 1,0,1
 529 897 529 897 543 911 c 128,-1,2
 557 925 557 925 578 925 c 2,3,-1
 974 925 l 2,4,5
 995 925 995 925 1009 911 c 128,-1,6
 1023 897 1023 897 1023 876 c 128,-1,7
 1023 855 1023 855 1009 841 c 128,-1,8
 995 827 995 827 974 826 c 2,9,-1
 578 826 l 2,10,11
 557 827 557 827 543 841 c 128,-1,12
 529 855 529 855 529 876 c 1,13,14
 529 876 529 876 529 876 c 1,0,1
0 479 m 1,15,16
 1 500 1 500 15 514 c 128,-1,17
 29 528 29 528 50 529 c 2,18,-1
 974 529 l 2,19,20
 995 528 995 528 1009 514 c 128,-1,21
 1023 500 1023 500 1024 479 c 2,22,-1
 1024 149 l 2,23,24
 1023 128 1023 128 1009 114 c 128,-1,25
 995 100 995 100 974 100 c 2,26,-1
 50 100 l 2,27,28
 29 100 29 100 14.5 114.5 c 128,-1,29
 0 129 0 129 0 149 c 2,30,-1
 0 479 l 1,31,32
 0 479 0 479 0 479 c 1,15,16
EndSplineSet
Validated: 5
EndChar

StartChar: K
Encoding: 75 75 11
Width: 1024
GlyphClass: 1
Flags: W
LayerCount: 2
Fore
SplineSet
776 1024 m 1,0,1
 797 1023 797 1023 811 1009 c 128,-1,2
 825 995 825 995 826 974 c 2,3,-1
 826 826 l 1,4,-1
 974 826 l 2,5,6
 995 825 995 825 1009 811 c 128,-1,7
 1023 797 1023 797 1023 776 c 128,-1,8
 1023 755 1023 755 1009 741 c 128,-1,9
 995 727 995 727 974 727 c 2,10,-1
 826 727 l 1,11,-1
 826 578 l 2,12,13
 825 557 825 557 811 543 c 128,-1,14
 797 529 797 529 776 529 c 128,-1,15
 755 529 755 529 741 543 c 128,-1,16
 727 557 727 557 727 578 c 2,17,-1
 727 727 l 1,18,-1
 578 727 l 2,19,20
 557 727 557 727 543 741 c 128,-1,21
 529 755 529 755 529 776 c 128,-1,22
 529 797 529 797 543 811 c 128,-1,23
 557 825 557 825 578 826 c 2,24,-1
 727 826 l 1,25,-1
 727 974 l 2,26,27
 727 995 727 995 741 1009 c 128,-1,28
 755 1023 755 1023 776 1024 c 1,29,30
 776 1024 776 1024 776 1024 c 1,0,1
0 380 m 1,31,32
 1 401 1 401 15 415 c 128,-1,33
 29 429 29 429 50 429 c 2,34,-1
 974 429 l 2,35,36
 995 429 995 429 1009 415 c 128,-1,37
 1023 401 1023 401 1024 380 c 2,38,-1
 1024 50 l 2,39,40
 1023 29 1023 29 1009 15 c 128,-1,41
 995 1 995 1 974 0 c 2,42,-1
 50 0 l 2,43,44
 29 0 29 0 14.5 14.5 c 128,-1,45
 0 29 0 29 0 50 c 2,46,-1
 0 380 l 1,47,48
 0 380 0 380 0 380 c 1,31,32
EndSplineSet
Validated: 5
EndChar

StartChar: L
Encoding: 76 76 12
Width: 1024
GlyphClass: 1
Flags: W
LayerCount: 2
Fore
SplineSet
0 976 m 1,0,1
 1 996 1 996 14.5 1009.5 c 128,-1,2
 28 1023 28 1023 48 1024 c 2,3,-1
 976 1024 l 2,4,5
 996 1023 996 1023 1009.5 1009.5 c 128,-1,6
 1023 996 1023 996 1023 976 c 128,-1,7
 1023 956 1023 956 1009.5 942.5 c 128,-1,8
 996 929 996 929 976 928 c 2,9,-1
 48 928 l 2,10,11
 28 929 28 929 14.5 942.5 c 128,-1,12
 1 956 1 956 0 976 c 1,13,14
 0 976 0 976 0 976 c 1,0,1
0 667 m 1,15,16
 1 687 1 687 14.5 700.5 c 128,-1,17
 28 714 28 714 48 715 c 2,18,-1
 976 715 l 2,19,20
 996 714 996 714 1009.5 700.5 c 128,-1,21
 1023 687 1023 687 1023 666.5 c 128,-1,22
 1023 646 1023 646 1009.5 632.5 c 128,-1,23
 996 619 996 619 976 619 c 2,24,-1
 48 619 l 2,25,26
 28 619 28 619 14.5 632.5 c 128,-1,27
 1 646 1 646 0 667 c 1,28,29
 0 667 0 667 0 667 c 1,15,16
0 357 m 1,30,31
 1 378 1 378 14.5 391.5 c 128,-1,32
 28 405 28 405 48 405 c 2,33,-1
 512 405 l 2,34,35
 532 405 532 405 545.5 391.5 c 128,-1,36
 559 378 559 378 559 357.5 c 128,-1,37
 559 337 559 337 545.5 323.5 c 128,-1,38
 532 310 532 310 512 309 c 2,39,-1
 48 309 l 2,40,41
 28 310 28 310 14.5 323.5 c 128,-1,42
 1 337 1 337 0 357 c 1,43,44
 0 357 0 357 0 357 c 1,30,31
729 357 m 1,45,46
 730 378 730 378 743.5 391.5 c 128,-1,47
 757 405 757 405 777 405 c 2,48,-1
 976 405 l 2,49,50
 996 405 996 405 1009.5 391.5 c 128,-1,51
 1023 378 1023 378 1023 357.5 c 128,-1,52
 1023 337 1023 337 1009.5 323.5 c 128,-1,53
 996 310 996 310 976 309 c 2,54,-1
 777 309 l 2,55,56
 757 310 757 310 743.5 323.5 c 128,-1,57
 730 337 730 337 729 357 c 1,58,59
 729 357 729 357 729 357 c 1,45,46
0 48 m 1,60,61
 1 68 1 68 14.5 81.5 c 128,-1,62
 28 95 28 95 48 96 c 2,63,-1
 379 96 l 2,64,65
 400 95 400 95 413.5 81.5 c 128,-1,66
 427 68 427 68 427 48 c 128,-1,67
 427 28 427 28 413.5 14.5 c 128,-1,68
 400 1 400 1 379 0 c 2,69,-1
 48 0 l 2,70,71
 28 1 28 1 14.5 14.5 c 128,-1,72
 1 28 1 28 0 48 c 1,73,74
 0 48 0 48 0 48 c 1,60,61
597 48 m 1,75,76
 597 68 597 68 610.5 81.5 c 128,-1,77
 624 95 624 95 645 96 c 2,78,-1
 976 96 l 2,79,80
 996 95 996 95 1009.5 81.5 c 128,-1,81
 1023 68 1023 68 1023 48 c 128,-1,82
 1023 28 1023 28 1009.5 14.5 c 128,-1,83
 996 1 996 1 976 0 c 2,84,-1
 645 0 l 2,85,86
 624 1 624 1 610.5 14.5 c 128,-1,87
 597 28 597 28 597 48 c 1,88,89
 597 48 597 48 597 48 c 1,75,76
EndSplineSet
Validated: 5
EndChar

StartChar: M
Encoding: 77 77 13
Width: 1024
GlyphClass: 1
Flags: W
LayerCount: 2
Fore
SplineSet
48 1024 m 1,0,1
 68 1023 68 1023 81.5 1009.5 c 128,-1,2
 95 996 95 996 96 976 c 2,3,-1
 96 958 l 1,4,-1
 976 958 l 2,5,6
 996 957 996 957 1009.5 943.5 c 128,-1,7
 1023 930 1023 930 1023 909.5 c 128,-1,8
 1023 889 1023 889 1009.5 875.5 c 128,-1,9
 996 862 996 862 976 862 c 2,10,-1
 96 862 l 1,11,-1
 96 693 l 1,12,-1
 711 693 l 2,13,14
 731 692 731 692 744.5 678.5 c 128,-1,15
 758 665 758 665 758 644.5 c 128,-1,16
 758 624 758 624 744.5 610.5 c 128,-1,17
 731 597 731 597 711 597 c 2,18,-1
 96 597 l 1,19,-1
 96 427 l 1,20,-1
 711 427 l 2,21,22
 731 427 731 427 744.5 413.5 c 128,-1,23
 758 400 758 400 758 379.5 c 128,-1,24
 758 359 758 359 744.5 345.5 c 128,-1,25
 731 332 731 332 711 331 c 2,26,-1
 96 331 l 1,27,-1
 96 162 l 1,28,-1
 711 162 l 2,29,30
 731 162 731 162 744.5 148.5 c 128,-1,31
 758 135 758 135 758 114.5 c 128,-1,32
 758 94 758 94 744.5 80.5 c 128,-1,33
 731 67 731 67 711 66 c 2,34,-1
 96 66 l 1,35,-1
 96 48 l 2,36,37
 95 28 95 28 81.5 14.5 c 128,-1,38
 68 1 68 1 48 1 c 128,-1,39
 28 1 28 1 14.5 14.5 c 128,-1,40
 1 28 1 28 0 48 c 2,41,-1
 0 379 l 1,42,43
 0 379 0 379 0 379 c 1,44,-1
 0 645 l 1,45,46
 0 645 0 645 0 645 c 1,47,-1
 0 910 l 1,48,49
 0 910 0 910 0 910 c 1,50,-1
 0 976 l 2,51,52
 1 996 1 996 14.5 1009.5 c 128,-1,53
 28 1023 28 1023 48 1024 c 1,54,55
 48 1024 48 1024 48 1024 c 1,0,1
EndSplineSet
Validated: 5
EndChar

StartChar: N
Encoding: 78 78 14
Width: 1024
GlyphClass: 1
Flags: W
LayerCount: 2
Fore
SplineSet
487 966 m 1,0,1
 499 973 499 973 512 973 c 128,-1,2
 525 973 525 973 537 966 c 2,3,-1
 1001 682 l 2,4,5
 1018 671 1018 671 1022.5 652.5 c 128,-1,6
 1027 634 1027 634 1016.5 616.5 c 128,-1,7
 1006 599 1006 599 987.5 594.5 c 128,-1,8
 969 590 969 590 951 600 c 2,9,-1
 921 619 l 1,10,-1
 921 131 l 2,11,12
 920 97 920 97 898 75 c 128,-1,13
 876 53 876 53 842 52 c 2,14,-1
 182 52 l 2,15,16
 148 53 148 53 126 75 c 128,-1,17
 104 97 104 97 103 131 c 2,18,-1
 103 619 l 1,19,-1
 73 600 l 2,20,21
 55 590 55 590 36.5 594.5 c 128,-1,22
 18 599 18 599 7.5 616.5 c 128,-1,23
 -3 634 -3 634 1.5 652.5 c 128,-1,24
 6 671 6 671 23 682 c 2,25,-1
 487 966 l 1,26,27
 487 966 487 966 487 966 c 1,0,1
199 677 m 1,28,29
 199 644 199 644 199 413 c 2,30,-1
 199 148 l 1,31,-1
 825 148 l 1,32,-1
 825 677 l 1,33,-1
 512 869 l 1,34,-1
 199 677 l 1,35,36
 199 677 199 677 199 677 c 1,28,29
EndSplineSet
Validated: 37
EndChar

StartChar: O
Encoding: 79 79 15
Width: 1024
GlyphClass: 1
Flags: W
LayerCount: 2
Fore
SplineSet
174 803 m 1,0,1
 141 776 141 776 117.5 725 c 128,-1,2
 94 674 94 674 94 590 c 128,-1,3
 94 506 94 506 117.5 455 c 128,-1,4
 141 404 141 404 174.5 376.5 c 128,-1,5
 208 349 208 349 243.5 337.5 c 128,-1,6
 279 326 279 326 305 326 c 2,7,-1
 617 326 l 1,8,-1
 541 402 l 2,9,10
 528 416 528 416 528 434.5 c 128,-1,11
 528 453 528 453 542 467 c 128,-1,12
 556 481 556 481 574.5 481 c 128,-1,13
 593 481 593 481 607 468 c 2,14,-1
 762 313 l 2,15,16
 776 298 776 298 776 279.5 c 128,-1,17
 776 261 776 261 762 247 c 2,18,-1
 607 92 l 2,19,20
 593 78 593 78 574.5 78 c 128,-1,21
 556 78 556 78 542 92 c 128,-1,22
 528 106 528 106 528 124.5 c 128,-1,23
 528 143 528 143 541 157 c 2,24,-1
 617 233 l 1,25,-1
 305 233 l 2,26,27
 265 233 265 233 213.5 249.5 c 128,-1,28
 162 266 162 266 112.5 307.5 c 128,-1,29
 63 349 63 349 32 418.5 c 128,-1,30
 1 488 1 488 1 590 c 128,-1,31
 1 692 1 692 32 761.5 c 128,-1,32
 63 831 63 831 112.5 872.5 c 128,-1,33
 162 914 162 914 213.5 930.5 c 128,-1,34
 265 947 265 947 305 947 c 2,35,-1
 719 947 l 2,36,37
 759 947 759 947 810.5 930.5 c 128,-1,38
 862 914 862 914 911.5 872.5 c 128,-1,39
 961 831 961 831 992 761.5 c 128,-1,40
 1023 692 1023 692 1024 590 c 0,41,42
 1024 514 1024 514 1006 456 c 128,-1,43
 988 398 988 398 956 356 c 0,44,45
 944 340 944 340 925.5 337 c 128,-1,46
 907 334 907 334 891.5 346 c 128,-1,47
 876 358 876 358 873 376.5 c 128,-1,48
 870 395 870 395 881 411 c 0,49,50
 903 439 903 439 916.5 483 c 128,-1,51
 930 527 930 527 931 590 c 0,52,53
 930 674 930 674 906.5 725 c 128,-1,54
 883 776 883 776 849.5 803.5 c 128,-1,55
 816 831 816 831 780.5 842.5 c 128,-1,56
 745 854 745 854 719 854 c 2,57,-1
 305 854 l 2,58,59
 279 854 279 854 243.5 842.5 c 128,-1,60
 208 831 208 831 174 803 c 1,61,62
 174 803 174 803 174 803 c 1,0,1
EndSplineSet
Validated: 33
EndChar

StartChar: P
Encoding: 80 80 16
Width: 1024
GlyphClass: 1
Flags: W
LayerCount: 2
Fore
SplineSet
186 1024 m 1,0,1
 206 1023 206 1023 219.5 1009.5 c 128,-1,2
 233 996 233 996 234 976 c 2,3,-1
 234 802 l 1,4,-1
 327 802 l 2,5,6
 348 802 348 802 361.5 788.5 c 128,-1,7
 375 775 375 775 375 754.5 c 128,-1,8
 375 734 375 734 361.5 720.5 c 128,-1,9
 348 707 348 707 327 706 c 2,10,-1
 234 706 l 1,11,-1
 234 48 l 2,12,13
 233 28 233 28 219.5 14.5 c 128,-1,14
 206 1 206 1 186 1 c 128,-1,15
 166 1 166 1 152.5 14.5 c 128,-1,16
 139 28 139 28 138 48 c 2,17,-1
 138 706 l 1,18,-1
 48 706 l 2,19,20
 28 707 28 707 14.5 720.5 c 128,-1,21
 1 734 1 734 1 754.5 c 128,-1,22
 1 775 1 775 14.5 788.5 c 128,-1,23
 28 802 28 802 48 802 c 2,24,-1
 138 802 l 1,25,-1
 138 976 l 2,26,27
 139 996 139 996 152.5 1009.5 c 128,-1,28
 166 1023 166 1023 186 1024 c 1,29,30
 186 1024 186 1024 186 1024 c 1,0,1
501 1024 m 1,31,32
 521 1023 521 1023 534.5 1009.5 c 128,-1,33
 548 996 548 996 549 976 c 2,34,-1
 549 340 l 1,35,-1
 641 340 l 2,36,37
 661 340 661 340 674.5 326.5 c 128,-1,38
 688 313 688 313 688 292.5 c 128,-1,39
 688 272 688 272 674.5 258.5 c 128,-1,40
 661 245 661 245 641 244 c 2,41,-1
 549 244 l 1,42,-1
 549 48 l 2,43,44
 548 28 548 28 534.5 14.5 c 128,-1,45
 521 1 521 1 500.5 1 c 128,-1,46
 480 1 480 1 466.5 14.5 c 128,-1,47
 453 28 453 28 453 48 c 2,48,-1
 453 244 l 1,49,-1
 361 244 l 2,50,51
 341 245 341 245 327.5 258.5 c 128,-1,52
 314 272 314 272 314 292.5 c 128,-1,53
 314 313 314 313 327.5 326.5 c 128,-1,54
 341 340 341 340 361 340 c 2,55,-1
 453 340 l 1,56,-1
 453 976 l 2,57,58
 453 996 453 996 466.5 1009.5 c 128,-1,59
 480 1023 480 1023 501 1024 c 1,60,61
 501 1024 501 1024 501 1024 c 1,31,32
834 1024 m 1,62,63
 854 1023 854 1023 867.5 1009.5 c 128,-1,64
 881 996 881 996 882 976 c 2,65,-1
 882 630 l 1,66,-1
 976 630 l 2,67,68
 996 629 996 629 1009.5 615.5 c 128,-1,69
 1023 602 1023 602 1023 581.5 c 128,-1,70
 1023 561 1023 561 1009.5 547.5 c 128,-1,71
 996 534 996 534 976 534 c 2,72,-1
 882 534 l 1,73,-1
 882 48 l 2,74,75
 881 28 881 28 867.5 14.5 c 128,-1,76
 854 1 854 1 833.5 1 c 128,-1,77
 813 1 813 1 799.5 14.5 c 128,-1,78
 786 28 786 28 786 48 c 2,79,-1
 786 534 l 1,80,-1
 697 534 l 2,81,82
 676 534 676 534 662.5 547.5 c 128,-1,83
 649 561 649 561 649 581.5 c 128,-1,84
 649 602 649 602 662.5 615.5 c 128,-1,85
 676 629 676 629 697 630 c 2,86,-1
 786 630 l 1,87,-1
 786 976 l 2,88,89
 786 996 786 996 799.5 1009.5 c 128,-1,90
 813 1023 813 1023 834 1024 c 1,91,92
 834 1024 834 1024 834 1024 c 1,62,63
EndSplineSet
Validated: 5
EndChar

StartChar: Q
Encoding: 81 81 17
Width: 1024
GlyphClass: 1
Flags: W
LayerCount: 2
Fore
SplineSet
751 1010 m 1,0,1
 736 1024 736 1024 716.5 1024 c 128,-1,2
 697 1024 697 1024 683 1010 c 2,3,-1
 30 357 l 2,4,5
 16 343 16 343 8.5 324.5 c 128,-1,6
 1 306 1 306 1 286 c 2,7,-1
 1 48 l 2,8,9
 1 28 1 28 14.5 14.5 c 128,-1,10
 28 1 28 1 49 0 c 2,11,-1
 287 0 l 2,12,13
 307 0 307 0 325 7.5 c 128,-1,14
 343 15 343 15 358 29 c 2,15,-1
 1010 682 l 2,16,17
 1024 697 1024 697 1024 716 c 128,-1,18
 1024 735 1024 735 1010 750 c 2,19,-1
 751 1010 l 1,20,21
 751 1010 751 1010 751 1010 c 1,0,1
568 760 m 1,22,23
 539 730 539 730 333 524 c 2,24,-1
 98 289 l 2,25,26
 97 288 97 288 97 286 c 2,27,-1
 97 96 l 1,28,-1
 287 96 l 2,29,30
 288 96 288 96 290 97 c 2,31,-1
 760 568 l 1,32,-1
 568 760 l 1,33,34
 568 760 568 760 568 760 c 1,22,23
828 636 m 1,35,36
 833 641 833 641 868 676 c 2,37,-1
 909 716 l 1,38,-1
 717 908 l 1,39,-1
 636 828 l 1,40,-1
 828 636 l 1,41,42
 828 636 828 636 828 636 c 1,35,36
EndSplineSet
Validated: 5
EndChar

StartChar: R
Encoding: 82 82 18
Width: 1024
GlyphClass: 1
Flags: W
LayerCount: 2
Fore
SplineSet
222 71 m 1,0,1
 221 41 221 41 201 21 c 128,-1,2
 181 1 181 1 151 0 c 2,3,-1
 71 0 l 2,4,5
 41 1 41 1 21 21 c 128,-1,6
 1 41 1 41 1 71 c 2,7,-1
 1 953 l 2,8,9
 1 983 1 983 21 1003 c 128,-1,10
 41 1023 41 1023 71 1024 c 2,11,-1
 78 1024 l 2,12,13
 108 1023 108 1023 128 1003 c 128,-1,14
 148 983 148 983 149 953 c 2,15,-1
 149 385 l 2,16,17
 149 370 149 370 159.5 359.5 c 128,-1,18
 170 349 170 349 185.5 349 c 128,-1,19
 201 349 201 349 211.5 338.5 c 128,-1,20
 222 328 222 328 222 312 c 2,21,-1
 222 71 l 1,22,23
 222 71 222 71 222 71 c 1,0,1
494 71 m 1,24,25
 493 41 493 41 473 21 c 128,-1,26
 453 1 453 1 423 0 c 2,27,-1
 322 0 l 2,28,29
 292 1 292 1 272 21 c 128,-1,30
 252 41 252 41 251 71 c 2,31,-1
 251 311 l 2,32,33
 252 327 252 327 262.5 338 c 128,-1,34
 273 349 273 349 289.5 349 c 128,-1,35
 306 349 306 349 317 360 c 128,-1,36
 328 371 328 371 328 387 c 2,37,-1
 328 977 l 2,38,39
 329 997 329 997 342 1010.5 c 128,-1,40
 355 1024 355 1024 375 1024 c 128,-1,41
 395 1024 395 1024 408 1010.5 c 128,-1,42
 421 997 421 997 422 977 c 2,43,-1
 422 385 l 2,44,45
 422 370 422 370 432 359.5 c 128,-1,46
 442 349 442 349 457.5 349 c 128,-1,47
 473 349 473 349 483 338.5 c 128,-1,48
 493 328 493 328 494 313 c 2,49,-1
 494 71 l 1,50,51
 494 71 494 71 494 71 c 1,24,25
772 71 m 1,52,53
 771 41 771 41 751 21 c 128,-1,54
 731 1 731 1 701 0 c 2,55,-1
 593 0 l 2,56,57
 563 1 563 1 543 21 c 128,-1,58
 523 41 523 41 522 71 c 2,59,-1
 522 309 l 2,60,61
 523 326 523 326 534 337.5 c 128,-1,62
 545 349 545 349 562 349 c 128,-1,63
 579 349 579 349 590 360.5 c 128,-1,64
 601 372 601 372 602 389 c 2,65,-1
 602 975 l 2,66,67
 602 996 602 996 616 1009.5 c 128,-1,68
 630 1023 630 1023 650.5 1023 c 128,-1,69
 671 1023 671 1023 684.5 1009.5 c 128,-1,70
 698 996 698 996 699 975 c 2,71,-1
 699 385 l 2,72,73
 699 370 699 370 709.5 359.5 c 128,-1,74
 720 349 720 349 735.5 349 c 128,-1,75
 751 349 751 349 761.5 338.5 c 128,-1,76
 772 328 772 328 772 312 c 2,77,-1
 772 71 l 1,78,79
 772 71 772 71 772 71 c 1,52,53
954 1024 m 1,80,81
 984 1023 984 1023 1004 1003 c 128,-1,82
 1024 983 1024 983 1025 953 c 2,83,-1
 1025 71 l 2,84,85
 1024 41 1024 41 1004 21 c 128,-1,86
 984 1 984 1 954 0 c 2,87,-1
 871 0 l 2,88,89
 841 1 841 1 821 21 c 128,-1,90
 801 41 801 41 801 71 c 2,91,-1
 801 310 l 2,92,93
 801 327 801 327 812 338 c 128,-1,94
 823 349 823 349 839.5 349 c 128,-1,95
 856 349 856 349 867 360 c 128,-1,96
 878 371 878 371 878 388 c 2,97,-1
 878 953 l 2,98,99
 879 983 879 983 899 1003 c 128,-1,100
 919 1023 919 1023 949 1024 c 2,101,-1
 954 1024 l 1,102,103
 954 1024 954 1024 954 1024 c 1,80,81
EndSplineSet
Validated: 5
EndChar

StartChar: S
Encoding: 83 83 19
Width: 1024
GlyphClass: 1
Flags: W
LayerCount: 2
Fore
SplineSet
768 1024 m 1,0,1
 768 985 768 985 768 715 c 2,2,-1
 768 406 l 1,3,-1
 256 0 l 1,4,-1
 256 1024 l 1,5,-1
 768 1024 l 1,6,7
 768 1024 768 1024 768 1024 c 1,0,1
EndSplineSet
Validated: 5
EndChar

StartChar: T
Encoding: 84 84 20
Width: 1024
GlyphClass: 1
Flags: W
LayerCount: 2
Fore
SplineSet
256 1024 m 1,0,1
 256 985 256 985 256 715 c 2,2,-1
 256 406 l 1,3,-1
 768 0 l 1,4,-1
 768 1024 l 1,5,-1
 256 1024 l 1,6,7
 256 1024 256 1024 256 1024 c 1,0,1
EndSplineSet
Validated: 5
EndChar

StartChar: U
Encoding: 85 85 21
Width: 1024
GlyphClass: 1
Flags: W
LayerCount: 2
Fore
SplineSet
173 1013 m 1,0,1
 128 1035 128 1035 88.5 1012 c 128,-1,2
 49 989 49 989 47 939 c 2,3,-1
 47 85 l 2,4,5
 49 35 49 35 88.5 12 c 128,-1,6
 128 -11 128 -11 173 11 c 2,7,-1
 934 434 l 2,8,9
 978 462 978 462 978 508.5 c 128,-1,10
 978 555 978 555 935 583 c 2,11,-1
 173 1013 l 1,12,13
 173 1013 173 1013 173 1013 c 1,0,1
EndSplineSet
Validated: 37
EndChar

StartChar: V
Encoding: 86 86 22
Width: 1024
GlyphClass: 1
Flags: W
LayerCount: 2
Fore
SplineSet
503 862 m 1,0,1
 414 860 414 860 355.5 801 c 128,-1,2
 297 742 297 742 295 654 c 2,3,-1
 295 371 l 2,4,5
 297 282 297 282 355.5 223.5 c 128,-1,6
 414 165 414 165 503 163 c 2,7,-1
 663 163 l 1,8,-1
 663 862 l 1,9,-1
 503 862 l 1,10,11
 503 862 503 862 503 862 c 1,0,1
199 654 m 1,12,13
 202 783 202 783 288 869 c 128,-1,14
 374 955 374 955 503 958 c 2,15,-1
 759 958 l 1,16,-1
 759 799 l 1,17,-1
 976 799 l 2,18,19
 996 798 996 798 1009.5 784.5 c 128,-1,20
 1023 771 1023 771 1023 750.5 c 128,-1,21
 1023 730 1023 730 1009.5 716.5 c 128,-1,22
 996 703 996 703 976 703 c 2,23,-1
 759 703 l 1,24,-1
 759 322 l 1,25,-1
 976 322 l 2,26,27
 996 321 996 321 1009.5 307.5 c 128,-1,28
 1023 294 1023 294 1023 273.5 c 128,-1,29
 1023 253 1023 253 1009.5 239.5 c 128,-1,30
 996 226 996 226 976 226 c 2,31,-1
 759 226 l 1,32,-1
 759 67 l 1,33,-1
 503 67 l 2,34,35
 374 70 374 70 288 155.5 c 128,-1,36
 202 241 202 241 199 371 c 2,37,-1
 199 464 l 1,38,-1
 48 464 l 2,39,40
 28 465 28 465 14.5 478.5 c 128,-1,41
 1 492 1 492 1 512.5 c 128,-1,42
 1 533 1 533 14.5 546.5 c 128,-1,43
 28 560 28 560 48 560 c 2,44,-1
 199 560 l 1,45,-1
 199 654 l 1,46,47
 199 654 199 654 199 654 c 1,12,13
EndSplineSet
Validated: 5
EndChar

StartChar: W
Encoding: 87 87 23
Width: 1024
GlyphClass: 1
Flags: W
LayerCount: 2
Fore
SplineSet
512 1024 m 1,0,1
 536 1023 536 1023 552 1007 c 128,-1,2
 568 991 568 991 569 967 c 2,3,-1
 569 569 l 1,4,-1
 967 569 l 2,5,6
 991 568 991 568 1007 552 c 128,-1,7
 1023 536 1023 536 1023 512 c 128,-1,8
 1023 488 1023 488 1007 472 c 128,-1,9
 991 456 991 456 967 455 c 2,10,-1
 569 455 l 1,11,-1
 569 57 l 2,12,13
 568 33 568 33 552 17 c 128,-1,14
 536 1 536 1 512 1 c 128,-1,15
 488 1 488 1 472 17 c 128,-1,16
 456 33 456 33 455 57 c 2,17,-1
 455 455 l 1,18,-1
 57 455 l 2,19,20
 33 456 33 456 17 472 c 128,-1,21
 1 488 1 488 1 512 c 128,-1,22
 1 536 1 536 17 552 c 128,-1,23
 33 568 33 568 57 569 c 2,24,-1
 455 569 l 1,25,-1
 455 967 l 2,26,27
 456 991 456 991 472 1007 c 128,-1,28
 488 1023 488 1023 512 1024 c 1,29,30
 512 1024 512 1024 512 1024 c 1,0,1
EndSplineSet
Validated: 5
EndChar

StartChar: X
Encoding: 88 88 24
Width: 1024
GlyphClass: 1
Flags: W
LayerCount: 2
Fore
SplineSet
1 512 m 1,0,1
 6 730 6 730 150.5 874.5 c 128,-1,2
 295 1019 295 1019 513 1024 c 0,3,4
 631 1023 631 1023 732 975 c 0,5,6
 864 911 864 911 943 789 c 128,-1,7
 1022 667 1022 667 1024 512 c 0,8,9
 1024 425 1024 425 997 347 c 128,-1,10
 970 269 970 269 921 204 c 1,11,-1
 1004 121 l 2,12,13
 1024 99 1024 99 1024 70.5 c 128,-1,14
 1024 42 1024 42 1003 21 c 128,-1,15
 982 0 982 0 953.5 0 c 128,-1,16
 925 0 925 0 903 21 c 2,17,-1
 821 104 l 1,18,19
 756 54 756 54 678 27 c 128,-1,20
 600 0 600 0 513 0 c 0,21,22
 295 5 295 5 150.5 149.5 c 128,-1,23
 6 294 6 294 1 512 c 1,24,25
 1 512 1 512 1 512 c 1,0,1
720 205 m 1,26,27
 713 212 713 212 669 256 c 2,28,-1
 618 307 l 2,29,30
 597 329 597 329 597 357 c 128,-1,31
 597 385 597 385 618.5 406.5 c 128,-1,32
 640 428 640 428 668.5 428 c 128,-1,33
 697 428 697 428 719 407 c 2,34,-1
 820 306 l 1,35,36
 850 350 850 350 866 402.5 c 128,-1,37
 882 455 882 455 882 512 c 0,38,39
 881 624 881 624 824 712 c 128,-1,40
 767 800 767 800 671 846 c 0,41,42
 599 881 599 881 513 882 c 0,43,44
 355 878 355 878 250.5 773.5 c 128,-1,45
 146 669 146 669 142 512 c 1,46,47
 146 355 146 355 250.5 250.5 c 128,-1,48
 355 146 355 146 513 142 c 0,49,50
 570 142 570 142 622.5 158.5 c 128,-1,51
 675 175 675 175 720 205 c 1,52,53
 720 205 720 205 720 205 c 1,26,27
EndSplineSet
Validated: 5
EndChar

StartChar: Y
Encoding: 89 89 25
Width: 1024
GlyphClass: 1
Flags: W
LayerCount: 2
Fore
SplineSet
0 504 m 1,0,1
 4 652 4 652 102 750.5 c 128,-1,2
 200 849 200 849 349 853 c 0,3,4
 430 852 430 852 498 819 c 0,5,6
 588 776 588 776 642 693 c 128,-1,7
 696 610 696 610 697 504 c 0,8,9
 697 445 697 445 678.5 391.5 c 128,-1,10
 660 338 660 338 627 294 c 1,11,-1
 683 238 l 2,12,13
 697 223 697 223 697 203.5 c 128,-1,14
 697 184 697 184 682.5 169.5 c 128,-1,15
 668 155 668 155 648.5 155.5 c 128,-1,16
 629 156 629 156 615 170 c 2,17,-1
 559 226 l 1,18,19
 515 193 515 193 461.5 174.5 c 128,-1,20
 408 156 408 156 349 156 c 0,21,22
 200 159 200 159 102 257.5 c 128,-1,23
 4 356 4 356 0 504 c 1,24,25
 0 504 0 504 0 504 c 1,0,1
490 295 m 1,26,27
 485 300 485 300 455 330 c 2,28,-1
 421 364 l 2,29,30
 407 379 407 379 407 398.5 c 128,-1,31
 407 418 407 418 421.5 432.5 c 128,-1,32
 436 447 436 447 455 447 c 128,-1,33
 474 447 474 447 489 433 c 2,34,-1
 558 364 l 1,35,36
 578 394 578 394 589 429.5 c 128,-1,37
 600 465 600 465 601 504 c 0,38,39
 600 580 600 580 561 640 c 128,-1,40
 522 700 522 700 457 732 c 0,41,42
 407 756 407 756 349 756 c 0,43,44
 242 753 242 753 170.5 682 c 128,-1,45
 99 611 99 611 97 504 c 0,46,47
 99 397 99 397 170.5 326 c 128,-1,48
 242 255 242 255 349 252 c 0,49,50
 388 252 388 252 423.5 263.5 c 128,-1,51
 459 275 459 275 490 295 c 1,52,53
 490 295 490 295 490 295 c 1,26,27
789 608 m 1,54,55
 787 608 787 608 786 608 c 0,56,57
 772 610 772 610 764 620 c 128,-1,58
 756 630 756 630 757 644 c 2,59,-1
 774 839 l 2,60,61
 776 852 776 852 784.5 860.5 c 128,-1,62
 793 869 793 869 805 869 c 2,63,-1
 928 869 l 2,64,65
 933 869 933 869 938 867 c 0,66,67
 951 862 951 862 956.5 850 c 128,-1,68
 962 838 962 838 958 825 c 2,69,-1
 917 717 l 1,70,-1
 992 717 l 2,71,72
 1001 717 1001 717 1008 713 c 0,73,74
 1020 705 1020 705 1023 692.5 c 128,-1,75
 1026 680 1026 680 1020 667 c 0,76,77
 1006 642 1006 642 948 550 c 2,78,-1
 857 404 l 2,79,80
 854 401 854 401 850.5 402 c 128,-1,81
 847 403 847 403 847 407 c 2,82,-1
 859 608 l 1,83,-1
 789 608 l 1,84,85
 789 608 789 608 789 608 c 1,54,55
EndSplineSet
Validated: 37
EndChar

StartChar: Z
Encoding: 90 90 26
Width: 1024
GlyphClass: 1
Flags: W
LayerCount: 2
Fore
SplineSet
512 0 m 1,0,1
 730 5 730 5 874.5 149.5 c 128,-1,2
 1019 294 1019 294 1024 512 c 1,3,4
 1019 730 1019 730 874.5 874.5 c 128,-1,5
 730 1019 730 1019 512 1024 c 1,6,7
 294 1019 294 1019 149.5 874.5 c 128,-1,8
 5 730 5 730 0 512 c 1,9,10
 5 294 5 294 149.5 149.5 c 128,-1,11
 294 5 294 5 512 0 c 1,12,13
 512 0 512 0 512 0 c 1,0,1
EndSplineSet
Validated: 5
EndChar

StartChar: a
Encoding: 97 97 27
Width: 1024
GlyphClass: 1
Flags: W
LayerCount: 2
Fore
SplineSet
194 944 m 1,0,1
 198 960 198 960 212.5 962 c 128,-1,2
 227 964 227 964 234 949 c 2,3,-1
 319 727 l 2,4,5
 327 712 327 712 342 713.5 c 128,-1,6
 357 715 357 715 360 732 c 2,7,-1
 372 837 l 2,8,9
 375 855 375 855 391 856 c 128,-1,10
 407 857 407 857 413 840 c 2,11,-1
 454 680 l 2,12,13
 460 664 460 664 475.5 664.5 c 128,-1,14
 491 665 491 665 496 683 c 2,15,-1
 502 731 l 2,16,17
 506 747 506 747 521 748.5 c 128,-1,18
 536 750 536 750 543 735 c 2,19,-1
 592 598 l 2,20,21
 596 587 596 587 606.5 584.5 c 128,-1,22
 617 582 617 582 626 589 c 2,23,-1
 712 665 l 2,24,25
 720 672 720 672 729.5 670 c 128,-1,26
 739 668 739 668 745 659 c 2,27,-1
 790 569 l 2,28,29
 794 560 794 560 803 557.5 c 128,-1,30
 812 555 812 555 820 560 c 2,31,-1
 890 607 l 2,32,33
 903 614 903 614 915 605 c 2,34,-1
 1025 513 l 1,35,-1
 915 421 l 2,36,37
 903 412 903 412 890 419 c 2,38,-1
 820 466 l 2,39,40
 812 471 812 471 803 468.5 c 128,-1,41
 794 466 794 466 790 457 c 2,42,-1
 744 366 l 2,43,44
 739 357 739 357 729.5 355 c 128,-1,45
 720 353 720 353 712 359 c 2,46,-1
 626 430 l 2,47,48
 617 436 617 436 607 433.5 c 128,-1,49
 597 431 597 431 593 420 c 2,50,-1
 543 282 l 2,51,52
 536 267 536 267 521 268.5 c 128,-1,53
 506 270 506 270 502 287 c 2,54,-1
 496 335 l 2,55,56
 491 352 491 352 475.5 353 c 128,-1,57
 460 354 460 354 454 337 c 2,58,-1
 413 177 l 2,59,60
 407 160 407 160 391 161.5 c 128,-1,61
 375 163 375 163 372 180 c 2,62,-1
 360 287 l 2,63,64
 356 303 356 303 341.5 305 c 128,-1,65
 327 307 327 307 319 292 c 2,66,-1
 235 76 l 2,67,68
 227 61 227 61 212.5 62.5 c 128,-1,69
 198 64 198 64 194 81 c 2,70,-1
 139 465 l 2,71,72
 136 478 136 478 123 482 c 2,73,-1
 1 513 l 1,74,-1
 123 544 l 2,75,76
 136 548 136 548 139 561 c 2,77,-1
 194 944 l 1,78,79
 194 944 194 944 194 944 c 1,0,1
EndSplineSet
Validated: 5
EndChar

StartChar: b
Encoding: 98 98 28
Width: 1024
GlyphClass: 1
Flags: W
LayerCount: 2
Fore
SplineSet
1 810 m 1,0,1
 2 883 2 883 50.5 931.5 c 128,-1,2
 99 980 99 980 172 982 c 0,3,4
 245 980 245 980 293.5 931.5 c 128,-1,5
 342 883 342 883 344 810 c 0,6,7
 343 768 343 768 325 733 c 1,8,-1
 514 571 l 1,9,-1
 782 801 l 2,10,11
 796 813 796 813 813.5 811.5 c 128,-1,12
 831 810 831 810 843 796 c 128,-1,13
 855 782 855 782 854 764.5 c 128,-1,14
 853 747 853 747 839 734 c 2,15,-1
 582 512 l 1,16,-1
 839 291 l 2,17,18
 853 278 853 278 854 260.5 c 128,-1,19
 855 243 855 243 843 229 c 128,-1,20
 831 215 831 215 813.5 213.5 c 128,-1,21
 796 212 796 212 782 224 c 2,22,-1
 514 454 l 1,23,-1
 325 292 l 1,24,25
 343 257 343 257 344 215 c 0,26,27
 342 142 342 142 293.5 93.5 c 128,-1,28
 245 45 245 45 172 43 c 0,29,30
 99 45 99 45 50.5 93.5 c 128,-1,31
 2 142 2 142 1 215 c 0,32,33
 2 288 2 288 50.5 336 c 128,-1,34
 99 384 99 384 172 386 c 0,35,36
 226 386 226 386 267 358 c 1,37,-1
 447 512 l 1,38,-1
 267 667 l 1,39,40
 226 639 226 639 172 639 c 0,41,42
 99 640 99 640 50.5 688.5 c 128,-1,43
 2 737 2 737 1 810 c 1,44,45
 1 810 1 810 1 810 c 1,0,1
234 270 m 1,46,47
 210 297 210 297 172 298 c 0,48,49
 137 297 137 297 113 273.5 c 128,-1,50
 89 250 89 250 89 214.5 c 128,-1,51
 89 179 89 179 113 155.5 c 128,-1,52
 137 132 137 132 172.5 132 c 128,-1,53
 208 132 208 132 231.5 155.5 c 128,-1,54
 255 179 255 179 256 215 c 0,55,56
 255 247 255 247 234 270 c 1,57,58
 234 270 234 270 234 270 c 1,46,47
172 894 m 1,59,60
 137 893 137 893 113 869.5 c 128,-1,61
 89 846 89 846 89 810.5 c 128,-1,62
 89 775 89 775 113 751.5 c 128,-1,63
 137 728 137 728 172 727 c 0,64,65
 210 728 210 728 234 755 c 0,66,67
 255 777 255 777 256 810 c 0,68,69
 255 846 255 846 231.5 869.5 c 128,-1,70
 208 893 208 893 172 894 c 1,71,72
 172 894 172 894 172 894 c 1,59,60
681 512 m 1,73,74
 682 531 682 531 694.5 543.5 c 128,-1,75
 707 556 707 556 725 556 c 2,76,-1
 768 556 l 2,77,78
 786 556 786 556 798.5 543.5 c 128,-1,79
 811 531 811 531 811 512.5 c 128,-1,80
 811 494 811 494 798.5 481.5 c 128,-1,81
 786 469 786 469 768 468 c 2,82,-1
 725 468 l 2,83,84
 707 469 707 469 694.5 481.5 c 128,-1,85
 682 494 682 494 681 512 c 1,86,87
 681 512 681 512 681 512 c 1,73,74
894 512 m 1,88,89
 894 531 894 531 906.5 543.5 c 128,-1,90
 919 556 919 556 938 556 c 2,91,-1
 980 556 l 2,92,93
 999 556 999 556 1011.5 543.5 c 128,-1,94
 1024 531 1024 531 1024 512.5 c 128,-1,95
 1024 494 1024 494 1011.5 481.5 c 128,-1,96
 999 469 999 469 980 468 c 2,97,-1
 938 468 l 2,98,99
 919 469 919 469 906.5 481.5 c 128,-1,100
 894 494 894 494 894 512 c 1,101,102
 894 512 894 512 894 512 c 1,88,89
EndSplineSet
Validated: 37
EndChar

StartChar: c
Encoding: 99 99 29
Width: 1024
GlyphClass: 1
Flags: W
LayerCount: 2
Fore
SplineSet
1 645 m 1,0,1
 5 806 5 806 112 913 c 128,-1,2
 219 1020 219 1020 380 1024 c 1,3,4
 541 1020 541 1020 648 913 c 128,-1,5
 755 806 755 806 759 645 c 0,6,7
 759 579 759 579 738.5 520 c 128,-1,8
 718 461 718 461 680 412 c 1,9,-1
 1010 82 l 2,10,11
 1024 67 1024 67 1024 48 c 128,-1,12
 1024 29 1024 29 1010 14.5 c 128,-1,13
 996 0 996 0 976.5 0 c 128,-1,14
 957 0 957 0 943 14 c 2,15,-1
 612 344 l 1,16,17
 564 307 564 307 505 286 c 128,-1,18
 446 265 446 265 380 265 c 0,19,20
 219 269 219 269 112 376 c 128,-1,21
 5 483 5 483 1 645 c 1,22,23
 1 645 1 645 1 645 c 1,0,1
380 928 m 1,24,25
 259 925 259 925 179.5 845 c 128,-1,26
 100 765 100 765 96 645 c 1,27,28
 100 524 100 524 179.5 444 c 128,-1,29
 259 364 259 364 380 361 c 0,30,31
 439 361 439 361 490.5 383 c 128,-1,32
 542 405 542 405 581 444 c 1,33,34
 581 444 581 444 581 444 c 1,35,36
 619 483 619 483 641 534.5 c 128,-1,37
 663 586 663 586 663 645 c 0,38,39
 660 765 660 765 580 845 c 128,-1,40
 500 925 500 925 380 928 c 1,41,42
 380 928 380 928 380 928 c 1,24,25
EndSplineSet
Validated: 5
EndChar

StartChar: d
Encoding: 100 100 30
Width: 1024
GlyphClass: 1
Flags: W
LayerCount: 2
Fore
SplineSet
0 853 m 1,0,1
 2 926 2 926 50 974 c 128,-1,2
 98 1022 98 1022 171 1024 c 2,3,-1
 853 1024 l 2,4,5
 926 1022 926 1022 974 974 c 128,-1,6
 1022 926 1022 926 1024 853 c 2,7,-1
 1024 171 l 2,8,9
 1022 98 1022 98 974 50 c 128,-1,10
 926 2 926 2 853 0 c 2,11,-1
 171 0 l 2,12,13
 98 2 98 2 50 50 c 128,-1,14
 2 98 2 98 0 171 c 2,15,-1
 0 853 l 1,16,17
 0 853 0 853 0 853 c 1,0,1
EndSplineSet
Validated: 5
EndChar

StartChar: e
Encoding: 101 101 31
Width: 1024
GlyphClass: 1
Flags: W
LayerCount: 2
Fore
SplineSet
0 910 m 1,0,1
 1 934 1 934 17 950 c 128,-1,2
 33 966 33 966 57 967 c 2,3,-1
 246 967 l 2,4,5
 271 966 271 966 287 950 c 128,-1,6
 303 934 303 934 303 910 c 2,7,-1
 303 759 l 2,8,9
 303 735 303 735 287 718.5 c 128,-1,10
 271 702 271 702 246 702 c 2,11,-1
 57 702 l 2,12,13
 33 702 33 702 17 718.5 c 128,-1,14
 1 735 1 735 0 759 c 2,15,-1
 0 910 l 1,16,17
 0 910 0 910 0 910 c 1,0,1
360 910 m 1,18,19
 361 934 361 934 377 950 c 128,-1,20
 393 966 393 966 417 967 c 2,21,-1
 607 967 l 2,22,23
 631 966 631 966 647 950 c 128,-1,24
 663 934 663 934 664 910 c 2,25,-1
 664 759 l 2,26,27
 663 735 663 735 647 718.5 c 128,-1,28
 631 702 631 702 607 702 c 2,29,-1
 417 702 l 2,30,31
 393 702 393 702 377 718.5 c 128,-1,32
 361 735 361 735 360 759 c 2,33,-1
 360 910 l 1,34,35
 360 910 360 910 360 910 c 1,18,19
721 910 m 1,36,37
 721 934 721 934 737 950 c 128,-1,38
 753 966 753 966 778 967 c 2,39,-1
 967 967 l 2,40,41
 991 966 991 966 1007 950 c 128,-1,42
 1023 934 1023 934 1024 910 c 2,43,-1
 1024 759 l 2,44,45
 1023 735 1023 735 1007 718.5 c 128,-1,46
 991 702 991 702 967 702 c 2,47,-1
 778 702 l 2,48,49
 753 702 753 702 737 718.5 c 128,-1,50
 721 735 721 735 721 759 c 2,51,-1
 721 910 l 1,52,53
 721 910 721 910 721 910 c 1,36,37
0 588 m 1,54,55
 1 612 1 612 17 628 c 128,-1,56
 33 644 33 644 57 645 c 2,57,-1
 246 645 l 2,58,59
 271 644 271 644 287 628 c 128,-1,60
 303 612 303 612 303 588 c 2,61,-1
 303 437 l 2,62,63
 303 412 303 412 287 396 c 128,-1,64
 271 380 271 380 246 380 c 2,65,-1
 57 380 l 2,66,67
 33 380 33 380 17 396 c 128,-1,68
 1 412 1 412 0 437 c 2,69,-1
 0 588 l 1,70,71
 0 588 0 588 0 588 c 1,54,55
360 588 m 1,72,73
 361 612 361 612 377 628 c 128,-1,74
 393 644 393 644 417 645 c 2,75,-1
 607 645 l 2,76,77
 631 644 631 644 647 628 c 128,-1,78
 663 612 663 612 664 588 c 2,79,-1
 664 437 l 2,80,81
 663 412 663 412 647 396 c 128,-1,82
 631 380 631 380 607 380 c 2,83,-1
 417 380 l 2,84,85
 393 380 393 380 377 396 c 128,-1,86
 361 412 361 412 360 437 c 2,87,-1
 360 588 l 1,88,89
 360 588 360 588 360 588 c 1,72,73
721 588 m 1,90,91
 721 612 721 612 737 628 c 128,-1,92
 753 644 753 644 778 645 c 2,93,-1
 967 645 l 2,94,95
 991 644 991 644 1007 628 c 128,-1,96
 1023 612 1023 612 1024 588 c 2,97,-1
 1024 437 l 2,98,99
 1023 412 1023 412 1007 396 c 128,-1,100
 991 380 991 380 967 380 c 2,101,-1
 778 380 l 2,102,103
 753 380 753 380 737 396 c 128,-1,104
 721 412 721 412 721 437 c 2,105,-1
 721 588 l 1,106,107
 721 588 721 588 721 588 c 1,90,91
0 266 m 1,108,109
 1 290 1 290 17 306 c 128,-1,110
 33 322 33 322 57 323 c 2,111,-1
 246 323 l 2,112,113
 271 322 271 322 287 306 c 128,-1,114
 303 290 303 290 303 266 c 2,115,-1
 303 114 l 2,116,117
 303 90 303 90 287 74 c 128,-1,118
 271 58 271 58 246 58 c 2,119,-1
 57 58 l 2,120,121
 33 58 33 58 17 74 c 128,-1,122
 1 90 1 90 0 114 c 2,123,-1
 0 266 l 1,124,125
 0 266 0 266 0 266 c 1,108,109
360 266 m 1,126,127
 361 290 361 290 377 306 c 128,-1,128
 393 322 393 322 417 323 c 2,129,-1
 607 323 l 2,130,131
 631 322 631 322 647 306 c 128,-1,132
 663 290 663 290 664 266 c 2,133,-1
 664 114 l 2,134,135
 663 90 663 90 647 74 c 128,-1,136
 631 58 631 58 607 58 c 2,137,-1
 417 58 l 2,138,139
 393 58 393 58 377 74 c 128,-1,140
 361 90 361 90 360 114 c 2,141,-1
 360 266 l 1,142,143
 360 266 360 266 360 266 c 1,126,127
721 266 m 1,144,145
 721 290 721 290 737 306 c 128,-1,146
 753 322 753 322 778 323 c 2,147,-1
 967 323 l 2,148,149
 991 322 991 322 1007 306 c 128,-1,150
 1023 290 1023 290 1024 266 c 2,151,-1
 1024 114 l 2,152,153
 1023 90 1023 90 1007 74 c 128,-1,154
 991 58 991 58 967 58 c 2,155,-1
 778 58 l 2,156,157
 753 58 753 58 737 74 c 128,-1,158
 721 90 721 90 721 114 c 2,159,-1
 721 266 l 1,160,161
 721 266 721 266 721 266 c 1,144,145
EndSplineSet
Validated: 5
EndChar

StartChar: f
Encoding: 102 102 32
Width: 1024
GlyphClass: 1
Flags: W
LayerCount: 2
Fore
SplineSet
208 1024 m 1,0,1
 162 1023 162 1023 131 992 c 128,-1,2
 100 961 100 961 99 915 c 2,3,-1
 99 109 l 2,4,5
 100 63 100 63 131 32 c 128,-1,6
 162 1 162 1 208 0 c 2,7,-1
 816 0 l 2,8,9
 862 1 862 1 893 32 c 128,-1,10
 924 63 924 63 925 109 c 2,11,-1
 925 915 l 2,12,13
 924 961 924 961 893 992 c 128,-1,14
 862 1023 862 1023 816 1024 c 2,15,-1
 208 1024 l 1,16,17
 208 1024 208 1024 208 1024 c 1,0,1
189 915 m 1,18,19
 189 923 189 923 194.5 928.5 c 128,-1,20
 200 934 200 934 208 934 c 2,21,-1
 816 934 l 2,22,23
 824 934 824 934 829.5 928.5 c 128,-1,24
 835 923 835 923 835 915 c 2,25,-1
 835 109 l 2,26,27
 835 101 835 101 829.5 95.5 c 128,-1,28
 824 90 824 90 816 90 c 2,29,-1
 208 90 l 2,30,31
 200 90 200 90 194.5 95.5 c 128,-1,32
 189 101 189 101 189 109 c 2,33,-1
 189 915 l 1,34,35
 189 915 189 915 189 915 c 1,18,19
363 882 m 1,36,37
 321 880 321 880 293 852 c 128,-1,38
 265 824 265 824 265 782 c 128,-1,39
 265 740 265 740 293 711.5 c 128,-1,40
 321 683 321 683 363 682 c 2,41,-1
 665 682 l 2,42,43
 708 683 708 683 736 711.5 c 128,-1,44
 764 740 764 740 764 782 c 128,-1,45
 764 824 764 824 736 852 c 128,-1,46
 708 880 708 880 665 882 c 2,47,-1
 363 882 l 1,48,49
 363 882 363 882 363 882 c 1,36,37
363 612 m 1,50,51
 321 610 321 610 293 582 c 128,-1,52
 265 554 265 554 265 512 c 128,-1,53
 265 470 265 470 293 442 c 128,-1,54
 321 414 321 414 363 412 c 2,55,-1
 665 412 l 2,56,57
 708 414 708 414 736 442 c 128,-1,58
 764 470 764 470 764 512 c 128,-1,59
 764 554 764 554 736 582 c 128,-1,60
 708 610 708 610 665 612 c 2,61,-1
 363 612 l 1,62,63
 363 612 363 612 363 612 c 1,50,51
363 342 m 1,64,65
 321 341 321 341 293 312.5 c 128,-1,66
 265 284 265 284 265 242 c 128,-1,67
 265 200 265 200 293 172 c 128,-1,68
 321 144 321 144 363 142 c 2,69,-1
 665 142 l 2,70,71
 708 144 708 144 736 172 c 128,-1,72
 764 200 764 200 764 242 c 128,-1,73
 764 284 764 284 736 312.5 c 128,-1,74
 708 341 708 341 665 342 c 2,75,-1
 363 342 l 1,76,77
 363 342 363 342 363 342 c 1,64,65
EndSplineSet
Validated: 5
EndChar

StartChar: g
Encoding: 103 103 33
Width: 1024
GlyphClass: 1
Flags: W
LayerCount: 2
Fore
SplineSet
141 801 m 1,0,1
 119 800 119 800 107.5 788.5 c 128,-1,2
 96 777 96 777 96 765 c 2,3,-1
 96 260 l 2,4,5
 96 248 96 248 107.5 236.5 c 128,-1,6
 119 225 119 225 141 224 c 2,7,-1
 883 224 l 2,8,9
 905 225 905 225 916.5 236.5 c 128,-1,10
 928 248 928 248 928 260 c 2,11,-1
 928 765 l 2,12,13
 928 777 928 777 916.5 788.5 c 128,-1,14
 905 800 905 800 883 801 c 2,15,-1
 141 801 l 1,16,17
 141 801 141 801 141 801 c 1,0,1
0 765 m 1,18,19
 2 824 2 824 43 860 c 128,-1,20
 84 896 84 896 141 897 c 2,21,-1
 883 897 l 2,22,23
 940 896 940 896 981 860 c 128,-1,24
 1022 824 1022 824 1024 765 c 2,25,-1
 1024 260 l 2,26,27
 1022 201 1022 201 981 165 c 128,-1,28
 940 129 940 129 883 128 c 2,29,-1
 141 128 l 2,30,31
 84 129 84 129 43 165 c 128,-1,32
 2 201 2 201 0 260 c 2,33,-1
 0 765 l 1,34,35
 0 765 0 765 0 765 c 1,18,19
200 732 m 1,36,37
 214 746 214 746 233.5 746 c 128,-1,38
 253 746 253 746 268 732 c 2,39,-1
 453 546 l 2,40,41
 467 532 467 532 467 512.5 c 128,-1,42
 467 493 467 493 453 478 c 2,43,-1
 268 293 l 2,44,45
 253 279 253 279 233.5 279 c 128,-1,46
 214 279 214 279 200 293.5 c 128,-1,47
 186 308 186 308 186 327 c 128,-1,48
 186 346 186 346 200 361 c 2,49,-1
 351 512 l 1,50,-1
 200 664 l 2,51,52
 186 679 186 679 186 698 c 128,-1,53
 186 717 186 717 200 732 c 1,54,55
 200 732 200 732 200 732 c 1,36,37
510 327 m 1,56,57
 511 347 511 347 524.5 360.5 c 128,-1,58
 538 374 538 374 558 375 c 2,59,-1
 790 375 l 2,60,61
 811 374 811 374 824.5 360.5 c 128,-1,62
 838 347 838 347 838 326.5 c 128,-1,63
 838 306 838 306 824.5 292.5 c 128,-1,64
 811 279 811 279 790 279 c 2,65,-1
 558 279 l 2,66,67
 538 279 538 279 524.5 292.5 c 128,-1,68
 511 306 511 306 510 327 c 1,69,70
 510 327 510 327 510 327 c 1,56,57
EndSplineSet
Validated: 5
EndChar

StartChar: h
Encoding: 104 104 34
Width: 1024
GlyphClass: 1
Flags: W
LayerCount: 2
Fore
SplineSet
95 862 m 257,0,1
 95 862 95 862 97 859 c 2,2,-1
 100 857 l 1,3,-1
 100 626 l 1,4,5
 57 620 57 620 29 589 c 128,-1,6
 1 558 1 558 1 514 c 2,7,-1
 1 112 l 2,8,9
 2 64 2 64 33.5 32.5 c 128,-1,10
 65 1 65 1 112 0 c 2,11,-1
 183 0 l 2,12,13
 231 1 231 1 262.5 32.5 c 128,-1,14
 294 64 294 64 295 112 c 2,15,-1
 295 514 l 2,16,17
 294 558 294 558 266.5 589 c 128,-1,18
 239 620 239 620 196 626 c 1,19,-1
 196 857 l 1,20,-1
 201 862 l 2,21,22
 218 880 218 880 222 903 c 128,-1,23
 226 926 226 926 215 949 c 0,24,25
 191 990 191 990 148 990 c 128,-1,26
 105 990 105 990 81 949 c 0,27,28
 70 926 70 926 73.5 903 c 128,-1,29
 77 880 77 880 95 862 c 1,30,31
 95 862 95 862 95 862 c 257,0,1
627 975 m 1,32,33
 627 995 627 995 613.5 1009 c 128,-1,34
 600 1023 600 1023 579.5 1023.5 c 128,-1,35
 559 1024 559 1024 545.5 1010.5 c 128,-1,36
 532 997 532 997 531 977 c 0,37,38
 529 925 529 925 538 879 c 128,-1,39
 547 833 547 833 573 798 c 0,40,41
 595 769 595 769 626.5 753 c 128,-1,42
 658 737 658 737 696 732 c 1,43,-1
 696 81 l 2,44,45
 697 46 697 46 720 23.5 c 128,-1,46
 743 1 743 1 777.5 1 c 128,-1,47
 812 1 812 1 835 24 c 128,-1,48
 858 47 858 47 859 81 c 2,49,-1
 859 732 l 1,50,51
 898 737 898 737 929 753.5 c 128,-1,52
 960 770 960 770 982 799 c 0,53,54
 1007 834 1007 834 1016 879.5 c 128,-1,55
 1025 925 1025 925 1024 976 c 0,56,57
 1024 996 1024 996 1010.5 1009.5 c 128,-1,58
 997 1023 997 1023 976.5 1023 c 128,-1,59
 956 1023 956 1023 942.5 1009.5 c 128,-1,60
 929 996 929 996 928 976 c 0,61,62
 928 928 928 928 922 899.5 c 128,-1,63
 916 871 916 871 905 856 c 0,64,65
 897 843 897 843 875.5 834.5 c 128,-1,66
 854 826 854 826 811 825 c 2,67,-1
 744 825 l 2,68,69
 701 826 701 826 679.5 834.5 c 128,-1,70
 658 843 658 843 649 856 c 0,71,72
 638 870 638 870 632 898.5 c 128,-1,73
 626 927 626 927 627 975 c 1,74,75
 627 975 627 975 627 975 c 1,32,33
EndSplineSet
Validated: 37
EndChar

StartChar: i
Encoding: 105 105 35
Width: 1024
GlyphClass: 1
Flags: W
LayerCount: 2
Fore
SplineSet
1 649 m 1,0,1
 5 809 5 809 110.5 914.5 c 128,-1,2
 216 1020 216 1020 376 1025 c 1,3,4
 535 1020 535 1020 641 914.5 c 128,-1,5
 747 809 747 809 751 649 c 0,6,7
 750 579 750 579 727 517.5 c 128,-1,8
 704 456 704 456 661 406 c 1,9,10
 668 404 668 404 673 399 c 2,11,-1
 1015 57 l 2,12,13
 1025 47 1025 47 1025 33.5 c 128,-1,14
 1025 20 1025 20 1015 10 c 128,-1,15
 1005 0 1005 0 991.5 0 c 128,-1,16
 978 0 978 0 968 10 c 2,17,-1
 626 352 l 2,18,19
 621 357 621 357 619 363 c 1,20,21
 569 321 569 321 507.5 298 c 128,-1,22
 446 275 446 275 376 274 c 0,23,24
 216 278 216 278 110.5 384 c 128,-1,25
 5 490 5 490 1 649 c 1,26,27
 1 649 1 649 1 649 c 1,0,1
376 958 m 1,28,29
 244 955 244 955 157 868 c 128,-1,30
 70 781 70 781 67 649 c 1,31,32
 70 518 70 518 157 431 c 128,-1,33
 244 344 244 344 376 340 c 0,34,35
 440 341 440 341 496 365 c 128,-1,36
 552 389 552 389 594.5 431 c 128,-1,37
 637 473 637 473 660.5 529 c 128,-1,38
 684 585 684 585 685 649 c 0,39,40
 681 781 681 781 594 868 c 128,-1,41
 507 955 507 955 376 958 c 1,42,43
 376 958 376 958 376 958 c 1,28,29
182 810 m 1,44,45
 183 824 183 824 192 833 c 128,-1,46
 201 842 201 842 215 843 c 2,47,-1
 298 843 l 2,48,49
 312 842 312 842 321 833 c 128,-1,50
 330 824 330 824 330 810 c 128,-1,51
 330 796 330 796 321 786.5 c 128,-1,52
 312 777 312 777 298 777 c 2,53,-1
 248 777 l 1,54,-1
 248 727 l 2,55,56
 248 713 248 713 238.5 704 c 128,-1,57
 229 695 229 695 215 695 c 128,-1,58
 201 695 201 695 192 704 c 128,-1,59
 183 713 183 713 182 727 c 2,60,-1
 182 810 l 1,61,62
 182 810 182 810 182 810 c 1,44,45
430 810 m 1,63,64
 430 824 430 824 439.5 833 c 128,-1,65
 449 842 449 842 463 843 c 2,66,-1
 546 843 l 2,67,68
 560 842 560 842 569 833 c 128,-1,69
 578 824 578 824 579 810 c 2,70,-1
 579 727 l 2,71,72
 578 713 578 713 569 704 c 128,-1,73
 560 695 560 695 545.5 695 c 128,-1,74
 531 695 531 695 522 704 c 128,-1,75
 513 713 513 713 512 727 c 2,76,-1
 512 777 l 1,77,-1
 463 777 l 2,78,79
 449 777 449 777 439.5 786.5 c 128,-1,80
 430 796 430 796 430 810 c 1,81,82
 430 810 430 810 430 810 c 1,63,64
215 595 m 1,83,84
 229 595 229 595 238.5 585.5 c 128,-1,85
 248 576 248 576 248 562 c 2,86,-1
 248 513 l 1,87,-1
 298 513 l 2,88,89
 312 512 312 512 321 503 c 128,-1,90
 330 494 330 494 330 479.5 c 128,-1,91
 330 465 330 465 321 456 c 128,-1,92
 312 447 312 447 298 446 c 2,93,-1
 215 446 l 2,94,95
 201 447 201 447 192 456 c 128,-1,96
 183 465 183 465 182 479 c 2,97,-1
 182 562 l 2,98,99
 183 576 183 576 192 585.5 c 128,-1,100
 201 595 201 595 215 595 c 1,101,102
 215 595 215 595 215 595 c 1,83,84
546 595 m 1,103,104
 560 595 560 595 569 585.5 c 128,-1,105
 578 576 578 576 579 562 c 2,106,-1
 579 479 l 2,107,108
 578 465 578 465 569 456 c 128,-1,109
 560 447 560 447 546 446 c 2,110,-1
 463 446 l 2,111,112
 449 447 449 447 439.5 456 c 128,-1,113
 430 465 430 465 430 479.5 c 128,-1,114
 430 494 430 494 439.5 503 c 128,-1,115
 449 512 449 512 463 513 c 2,116,-1
 512 513 l 1,117,-1
 512 562 l 2,118,119
 513 576 513 576 522 585.5 c 128,-1,120
 531 595 531 595 546 595 c 1,121,122
 546 595 546 595 546 595 c 1,103,104
EndSplineSet
Validated: 5
EndChar

StartChar: j
Encoding: 106 106 36
Width: 1024
GlyphClass: 1
Flags: W
LayerCount: 2
Fore
SplineSet
1 645 m 1,0,1
 5 806 5 806 112 913 c 128,-1,2
 219 1020 219 1020 380 1024 c 1,3,4
 541 1020 541 1020 648 913 c 128,-1,5
 755 806 755 806 759 645 c 0,6,7
 759 579 759 579 738.5 520 c 128,-1,8
 718 461 718 461 680 412 c 1,9,-1
 1010 82 l 2,10,11
 1024 67 1024 67 1024 48 c 128,-1,12
 1024 29 1024 29 1010 14.5 c 128,-1,13
 996 0 996 0 976.5 0 c 128,-1,14
 957 0 957 0 943 14 c 2,15,-1
 612 344 l 1,16,17
 564 307 564 307 505 286 c 128,-1,18
 446 265 446 265 380 265 c 0,19,20
 219 269 219 269 112 376 c 128,-1,21
 5 483 5 483 1 645 c 1,22,23
 1 645 1 645 1 645 c 1,0,1
380 928 m 1,24,25
 259 925 259 925 179.5 845 c 128,-1,26
 100 765 100 765 96 645 c 1,27,28
 100 524 100 524 179.5 444 c 128,-1,29
 259 364 259 364 380 361 c 0,30,31
 439 361 439 361 490.5 383 c 128,-1,32
 542 405 542 405 580.5 444 c 128,-1,33
 619 483 619 483 641 534.5 c 128,-1,34
 663 586 663 586 663 645 c 0,35,36
 660 765 660 765 580 845 c 128,-1,37
 500 925 500 925 380 928 c 1,38,39
 380 928 380 928 380 928 c 1,24,25
299 510 m 1,40,41
 294 510 294 510 261 510 c 2,42,-1
 224 510 l 1,43,-1
 224 681 l 1,44,-1
 225 703 l 1,45,46
 220 698 220 698 216 693 c 2,47,-1
 208 686 l 1,48,-1
 176 660 l 1,49,-1
 176 717 l 1,50,-1
 232 784 l 1,51,-1
 299 784 l 1,52,-1
 299 510 l 1,53,54
 299 510 299 510 299 510 c 1,40,41
331 541 m 1,55,56
 331 561 331 561 342.5 569 c 128,-1,57
 354 577 354 577 370 577 c 128,-1,58
 386 577 386 577 397.5 569 c 128,-1,59
 409 561 409 561 409 541.5 c 128,-1,60
 409 522 409 522 397.5 513.5 c 128,-1,61
 386 505 386 505 370 505 c 128,-1,62
 354 505 354 505 342.5 513.5 c 128,-1,63
 331 522 331 522 331 541 c 1,64,65
 331 541 331 541 331 541 c 1,55,56
331 689 m 1,66,67
 331 709 331 709 342.5 717 c 128,-1,68
 354 725 354 725 370 725 c 128,-1,69
 386 725 386 725 397.5 717 c 128,-1,70
 409 709 409 709 409 689.5 c 128,-1,71
 409 670 409 670 397.5 661.5 c 128,-1,72
 386 653 386 653 370 653 c 128,-1,73
 354 653 354 653 342.5 661.5 c 128,-1,74
 331 670 331 670 331 689 c 1,75,76
 331 689 331 689 331 689 c 1,66,67
570 510 m 1,77,78
 565 510 565 510 532 510 c 2,79,-1
 494 510 l 1,80,-1
 495 681 l 1,81,-1
 496 703 l 1,82,83
 491 698 491 698 486 693 c 2,84,-1
 478 686 l 1,85,-1
 447 660 l 1,86,-1
 447 717 l 1,87,-1
 503 784 l 1,88,-1
 570 784 l 1,89,-1
 570 510 l 1,90,91
 570 510 570 510 570 510 c 1,77,78
EndSplineSet
Validated: 5
EndChar

StartChar: k
Encoding: 107 107 37
Width: 1024
GlyphClass: 1
Flags: W
LayerCount: 2
Fore
SplineSet
1 645 m 1,0,1
 5 806 5 806 112 913 c 128,-1,2
 219 1020 219 1020 380 1024 c 1,3,4
 541 1020 541 1020 648 913 c 128,-1,5
 755 806 755 806 759 645 c 0,6,7
 759 579 759 579 738.5 520 c 128,-1,8
 718 461 718 461 680 412 c 1,9,-1
 1010 82 l 2,10,11
 1024 67 1024 67 1024 48 c 128,-1,12
 1024 29 1024 29 1010 14.5 c 128,-1,13
 996 0 996 0 976.5 0 c 128,-1,14
 957 0 957 0 943 14 c 2,15,-1
 612 344 l 1,16,17
 564 307 564 307 505 286 c 128,-1,18
 446 265 446 265 380 265 c 0,19,20
 219 269 219 269 112 376 c 128,-1,21
 5 483 5 483 1 645 c 1,22,23
 1 645 1 645 1 645 c 1,0,1
380 928 m 1,24,25
 259 925 259 925 179.5 845 c 128,-1,26
 100 765 100 765 96 645 c 1,27,28
 100 524 100 524 179.5 444 c 128,-1,29
 259 364 259 364 380 361 c 0,30,31
 439 361 439 361 490.5 383 c 128,-1,32
 542 405 542 405 580.5 444 c 128,-1,33
 619 483 619 483 641 534.5 c 128,-1,34
 663 586 663 586 663 645 c 0,35,36
 660 765 660 765 580 845 c 128,-1,37
 500 925 500 925 380 928 c 1,38,39
 380 928 380 928 380 928 c 1,24,25
380 825 m 1,40,41
 400 825 400 825 413.5 811.5 c 128,-1,42
 427 798 427 798 428 777 c 2,43,-1
 428 693 l 1,44,-1
 512 693 l 2,45,46
 533 692 533 692 546.5 678.5 c 128,-1,47
 560 665 560 665 560 644.5 c 128,-1,48
 560 624 560 624 546.5 610.5 c 128,-1,49
 533 597 533 597 512 597 c 2,50,-1
 428 597 l 1,51,-1
 428 512 l 2,52,53
 427 492 427 492 413.5 478.5 c 128,-1,54
 400 465 400 465 380 465 c 128,-1,55
 360 465 360 465 346 478.5 c 128,-1,56
 332 492 332 492 332 512 c 2,57,-1
 332 597 l 1,58,-1
 247 597 l 2,59,60
 227 597 227 597 213.5 610.5 c 128,-1,61
 200 624 200 624 200 644.5 c 128,-1,62
 200 665 200 665 213.5 678.5 c 128,-1,63
 227 692 227 692 247 693 c 2,64,-1
 332 693 l 1,65,-1
 332 777 l 2,66,67
 332 798 332 798 346 811.5 c 128,-1,68
 360 825 360 825 380 825 c 1,69,70
 380 825 380 825 380 825 c 1,40,41
EndSplineSet
Validated: 5
EndChar

StartChar: l
Encoding: 108 108 38
Width: 1024
GlyphClass: 1
Flags: W
LayerCount: 2
Fore
SplineSet
1 645 m 1,0,1
 5 806 5 806 112 913 c 128,-1,2
 219 1020 219 1020 380 1024 c 1,3,4
 541 1020 541 1020 648 913 c 128,-1,5
 755 806 755 806 759 645 c 0,6,7
 759 579 759 579 738.5 520 c 128,-1,8
 718 461 718 461 680 412 c 1,9,-1
 1010 82 l 2,10,11
 1024 67 1024 67 1024 48 c 128,-1,12
 1024 29 1024 29 1010 14.5 c 128,-1,13
 996 0 996 0 976.5 0 c 128,-1,14
 957 0 957 0 943 14 c 2,15,-1
 612 344 l 1,16,17
 564 307 564 307 505 286 c 128,-1,18
 446 265 446 265 380 265 c 0,19,20
 219 269 219 269 112 376 c 128,-1,21
 5 483 5 483 1 645 c 1,22,23
 1 645 1 645 1 645 c 1,0,1
380 928 m 1,24,25
 259 925 259 925 179.5 845 c 128,-1,26
 100 765 100 765 96 645 c 1,27,28
 100 524 100 524 179.5 444 c 128,-1,29
 259 364 259 364 380 361 c 0,30,31
 439 361 439 361 490.5 383 c 128,-1,32
 542 405 542 405 580.5 444 c 128,-1,33
 619 483 619 483 641 534.5 c 128,-1,34
 663 586 663 586 663 645 c 0,35,36
 660 765 660 765 580 845 c 128,-1,37
 500 925 500 925 380 928 c 1,38,39
 380 928 380 928 380 928 c 1,24,25
199 645 m 1,40,41
 200 665 200 665 213.5 678.5 c 128,-1,42
 227 692 227 692 247 693 c 2,43,-1
 512 693 l 2,44,45
 533 692 533 692 546.5 678.5 c 128,-1,46
 560 665 560 665 560 644.5 c 128,-1,47
 560 624 560 624 546.5 610.5 c 128,-1,48
 533 597 533 597 512 597 c 2,49,-1
 247 597 l 2,50,51
 227 597 227 597 213.5 610.5 c 128,-1,52
 200 624 200 624 199 645 c 1,53,54
 199 645 199 645 199 645 c 1,40,41
EndSplineSet
Validated: 5
EndChar

StartChar: m
Encoding: 109 109 39
Width: 1024
LayerCount: 2
Fore
SplineSet
78.759765625 144.416992188 m 2,0,-1
 78.759765625 879.583007812 l 2,1,2
 78.759765625 906.746337891 78.759765625 906.746337891 98.0067138672 925.993286133 c 128,-1,3
 117.253662109 945.240234375 117.253662109 945.240234375 144.416992188 945.240234375 c 2,4,-1
 731.083007812 945.240234375 l 2,5,6
 758.281922666 945.240234375 758.281922666 945.240234375 777.458984375 926.020507812 c 2,7,-1
 925.989257812 777.489257812 l 2,8,9
 945.240234375 758.281015474 945.240234375 758.281015474 945.240234375 731.083007812 c 2,10,-1
 945.240234375 144.416992188 l 2,11,12
 945.240234375 117.253662109 945.240234375 117.253662109 925.993286133 98.0067138672 c 128,-1,13
 906.746337891 78.759765625 906.746337891 78.759765625 879.583007812 78.759765625 c 2,14,-1
 144.416992188 78.759765625 l 2,15,16
 117.253662109 78.759765625 117.253662109 78.759765625 98.0067138672 98.0067138672 c 128,-1,17
 78.759765625 117.253662109 78.759765625 117.253662109 78.759765625 144.416992188 c 2,0,-1
-0.009765625 144.416992188 m 2,18,19
 -0.009765625 84.6418457031 -0.009765625 84.6418457031 42.3160400391 42.3160400391 c 128,-1,20
 84.6418457031 -0.009765625 84.6418457031 -0.009765625 144.416992188 -0.009765625 c 2,21,-1
 879.583007812 -0.009765625 l 2,22,23
 939.358154297 -0.009765625 939.358154297 -0.009765625 981.683959961 42.3160400391 c 128,-1,24
 1024.00976562 84.6418457031 1024.00976562 84.6418457031 1024.00976562 144.416992188 c 2,25,-1
 1024.00976562 731.083007812 l 2,26,27
 1024.00976562 790.936824249 1024.00976562 790.936824249 981.676757812 833.176757812 c 2,28,-1
 833.208007812 981.646484375 l 2,29,30
 790.936292125 1024.00976562 790.936292125 1024.00976562 731.083007812 1024.00976562 c 2,31,-1
 144.416992188 1024.00976562 l 2,32,33
 84.6418457031 1024.00976562 84.6418457031 1024.00976562 42.3160400391 981.683959961 c 128,-1,34
 -0.009765625 939.358154297 -0.009765625 939.358154297 -0.009765625 879.583007812 c 2,35,-1
 -0.009765625 144.416992188 l 2,18,19
224 443.75 m 2,36,-1
 224 96 l 1,37,-1
 800 96 l 1,38,-1
 800 443.75 l 2,39,40
 800 467.5859375 800 467.5859375 783.126464844 484.459472656 c 128,-1,41
 766.252929688 501.333007812 766.252929688 501.333007812 742.416992188 501.333007812 c 2,42,-1
 281.583007812 501.333007812 l 2,43,44
 257.747070312 501.333007812 257.747070312 501.333007812 240.873535156 484.459472656 c 128,-1,45
 224 467.5859375 224 467.5859375 224 443.75 c 2,36,-1
366.916992188 608 m 2,46,-1
 657.083007812 608 l 2,47,48
 680.91960219 608 680.91960219 608 697.793297189 624.873497384 c 128,-1,49
 714.666992188 641.746994769 714.666992188 641.746994769 714.666992188 665.583007812 c 2,50,-1
 714.666992188 870.416992188 l 2,51,52
 714.666992188 894.253005231 714.666992188 894.253005231 697.793297189 911.126502616 c 128,-1,53
 680.91960219 928 680.91960219 928 657.083007812 928 c 2,54,-1
 366.916992188 928 l 2,55,56
 343.08039781 928 343.08039781 928 326.206702811 911.126502616 c 128,-1,57
 309.333007812 894.253005231 309.333007812 894.253005231 309.333007812 870.416992188 c 2,58,-1
 309.333007812 665.583007812 l 2,59,60
 309.333007812 641.746994769 309.333007812 641.746994769 326.206702811 624.873497384 c 128,-1,61
 343.08039781 608 343.08039781 608 366.916992188 608 c 2,46,-1
288 160 m 1,62,-1
 288 437.333007812 l 1,63,-1
 736 437.333007812 l 1,64,-1
 736 160 l 1,65,-1
 288 160 l 1,62,-1
650.666992188 672 m 1,66,-1
 373.333007812 672 l 1,67,-1
 373.333007812 864 l 1,68,-1
 650.666992188 864 l 1,69,-1
 650.666992188 672 l 1,66,-1
EndSplineSet
Validated: 9
EndChar

StartChar: n
Encoding: 110 110 40
Width: 1024
LayerCount: 2
Fore
SplineSet
512 -0.0126953125 m 128,-1,1
 616.16311863 -0.0126953125 616.16311863 -0.0126953125 710.980347042 40.5379329871 c 128,-1,2
 805.797575454 81.0885612866 805.797575454 81.0885612866 874.354507084 149.645492916 c 128,-1,3
 942.911438713 218.202424546 942.911438713 218.202424546 983.462067013 313.019652958 c 128,-1,4
 1024.01269531 407.83688137 1024.01269531 407.83688137 1024.01269531 512 c 128,-1,5
 1024.01269531 616.16311863 1024.01269531 616.16311863 983.462067013 710.980347042 c 128,-1,6
 942.911438713 805.797575454 942.911438713 805.797575454 874.354507084 874.354507084 c 128,-1,7
 805.797575454 942.911438713 805.797575454 942.911438713 710.980347042 983.462067013 c 128,-1,8
 616.16311863 1024.01269531 616.16311863 1024.01269531 512 1024.01269531 c 128,-1,9
 407.83688137 1024.01269531 407.83688137 1024.01269531 313.019652958 983.462067013 c 128,-1,10
 218.202424546 942.911438713 218.202424546 942.911438713 149.645492916 874.354507084 c 128,-1,11
 81.0885612866 805.797575454 81.0885612866 805.797575454 40.5379329871 710.980347042 c 128,-1,12
 -0.0126953125 616.16311863 -0.0126953125 616.16311863 -0.0126953125 512 c 128,-1,13
 -0.0126953125 407.83688137 -0.0126953125 407.83688137 40.5379329871 313.019652958 c 128,-1,14
 81.0885612866 218.202424546 81.0885612866 218.202424546 149.645492916 149.645492916 c 128,-1,15
 218.202424546 81.0885612866 218.202424546 81.0885612866 313.019652958 40.5379329871 c 128,-1,0
 407.83688137 -0.0126953125 407.83688137 -0.0126953125 512 -0.0126953125 c 128,-1,1
512 84.1787109375 m 128,-1,17
 395.761147728 84.1787109375 395.761147728 84.1787109375 297.211527166 141.420308771 c 128,-1,18
 198.661906605 198.661906605 198.661906605 198.661906605 141.420308771 297.211527166 c 128,-1,19
 84.1787109375 395.761147728 84.1787109375 395.761147728 84.1787109375 512 c 128,-1,20
 84.1787109375 628.238852272 84.1787109375 628.238852272 141.420308771 726.788472834 c 128,-1,21
 198.661906605 825.338093395 198.661906605 825.338093395 297.211527166 882.579691229 c 128,-1,22
 395.761147728 939.821289062 395.761147728 939.821289062 512 939.821289062 c 128,-1,23
 628.238852272 939.821289062 628.238852272 939.821289062 726.788472834 882.579691229 c 128,-1,24
 825.338093395 825.338093395 825.338093395 825.338093395 882.579691229 726.788472834 c 128,-1,25
 939.821289062 628.238852272 939.821289062 628.238852272 939.821289062 512 c 128,-1,26
 939.821289062 395.761147728 939.821289062 395.761147728 882.579691229 297.211527166 c 128,-1,27
 825.338093395 198.661906605 825.338093395 198.661906605 726.788472834 141.420308771 c 128,-1,16
 628.238852272 84.1787109375 628.238852272 84.1787109375 512 84.1787109375 c 128,-1,17
412.286132812 387.703125 m 2,28,29
 432.265136719 368.447882429 432.265136719 368.447882429 457.930419922 379.373413086 c 128,-1,30
 483.595703125 390.298943743 483.595703125 390.298943743 483.595703125 418 c 0,31,32
 483.595703125 435.872897947 483.595703125 435.872897947 470.713867188 448.296875 c 2,33,-1
 381.309877065 534.529296875 l 1,34,-1
 615.088867188 534.529296875 l 2,35,36
 619.788345871 534.529296875 619.788345871 534.529296875 628.184618957 533.259116022 c 128,-1,37
 636.580892042 531.988935169 636.580892042 531.988935169 651.885368023 526.001300645 c 128,-1,38
 667.189844003 520.013666121 667.189844003 520.013666121 677.849609375 510.3046875 c 0,39,40
 704.862304688 485.700706829 704.862304688 485.700706829 704.862304688 435.625 c 0,41,42
 704.862304688 354.386892881 704.862304688 354.386892881 652.004882812 328.907226562 c 0,43,44
 633.22143125 319.851958008 633.22143125 319.851958008 615.018554688 319.137695312 c 2,45,-1
 577.791992188 319.137695312 l 2,46,47
 560.367111953 319.137695312 560.367111953 319.137695312 548.031700508 306.802086251 c 128,-1,48
 535.696289062 294.46647719 535.696289062 294.46647719 535.696289062 277.041992188 c 128,-1,49
 535.696289062 259.616943359 535.696289062 259.616943359 548.031616211 247.281616211 c 128,-1,50
 560.366943359 234.946289062 560.366943359 234.946289062 577.791992188 234.946289062 c 2,51,-1
 615.375 234.946289062 l 2,52,53
 632.838159832 234.946289062 632.838159832 234.946289062 653.143485799 239.791682118 c 128,-1,54
 673.448811766 244.637075173 673.448811766 244.637075173 698.299678263 258.609638195 c 128,-1,55
 723.15054476 272.582201216 723.15054476 272.582201216 742.742860799 293.835244618 c 128,-1,56
 762.335176839 315.08828802 762.335176839 315.08828802 775.694443888 352.028669445 c 128,-1,57
 789.053710938 388.969050869 789.053710938 388.969050869 789.053710938 435.625 c 0,58,59
 789.053710938 456.000840547 789.053710938 456.000840547 785.32124957 476.090892816 c 128,-1,60
 781.588788203 496.180945084 781.588788203 496.180945084 771.797753726 521.065723395 c 128,-1,61
 762.006719249 545.950501707 762.006719249 545.950501707 740.17571124 567.693431878 c 128,-1,62
 718.344703231 589.436362049 718.344703231 589.436362049 686.799804688 602.95703125 c 0,63,64
 669.903612316 610.199195556 669.903612316 610.199195556 652.443876913 614.120121076 c 128,-1,65
 634.984141511 618.041046596 634.984141511 618.041046596 626.805146524 618.568029966 c 128,-1,66
 618.626151537 619.095013335 618.626151537 619.095013335 615.375 618.720703125 c 2,67,-1
 376.188476562 618.720703125 l 1,68,-1
 471.782226562 717.728515625 l 2,69,70
 491.052954819 737.703125 491.052954819 737.703125 480.130981445 763.378417969 c 128,-1,71
 469.209008071 789.053710938 469.209008071 789.053710938 441.5 789.053710938 c 0,72,73
 423.640431178 789.053710938 423.640431178 789.053710938 411.217773438 776.1875 c 2,74,-1
 246.883547622 605.982696099 l 2,75,76
 241.30386069 600.272668374 241.30386069 600.272668374 238.332220007 593.486525698 c 0,77,78
 234.887733623 585.650164545 234.887733623 585.650164545 234.946655517 576.435204298 c 0,79,80
 234.981354667 567.456327752 234.981354667 567.456327752 238.30177466 559.83318378 c 0,81,82
 241.439178894 552.6000716 241.439178894 552.6000716 247.509438592 546.638286634 c 0,83,84
 247.833347153 546.318579372 247.833347153 546.318579372 248.160736279 546.007310801 c 2,85,-1
 412.286132812 387.703125 l 2,28,29
EndSplineSet
EndChar

StartChar: o
Encoding: 111 111 41
Width: 1024
LayerCount: 2
Fore
SplineSet
512 -0 m 128,-1,1
 616 -0 616 -0 711 40.5 c 128,-1,2
 806 81 806 81 874.5 149.5 c 128,-1,3
 943 218 943 218 983.5 313 c 128,-1,4
 1024 408 1024 408 1024 512 c 128,-1,5
 1024 616 1024 616 983.5 711 c 128,-1,6
 943 806 943 806 874.5 874.5 c 128,-1,7
 806 943 806 943 711 983.5 c 128,-1,8
 616 1024 616 1024 512 1024 c 128,-1,9
 408 1024 408 1024 313 983.5 c 128,-1,10
 218 943 218 943 149.5 874.5 c 128,-1,11
 81 806 81 806 40.5 711 c 128,-1,12
 -0 616 -0 616 -0 512 c 128,-1,13
 -0 408 -0 408 40.5 313 c 128,-1,14
 81 218 81 218 149.5 149.5 c 128,-1,15
 218 81 218 81 313 40.5 c 128,-1,0
 408 -0 408 -0 512 -0 c 128,-1,1
512 84 m 128,-1,17
 396 84 396 84 297.5 141.5 c 128,-1,18
 199 199 199 199 141.5 297.5 c 128,-1,19
 84 396 84 396 84 512 c 128,-1,20
 84 628 84 628 141.5 726.5 c 128,-1,21
 199 825 199 825 297.5 882.5 c 128,-1,22
 396 940 396 940 512 940 c 128,-1,23
 628 940 628 940 726.5 882.5 c 128,-1,24
 825 825 825 825 882.5 726.5 c 128,-1,25
 940 628 940 628 940 512 c 128,-1,26
 940 396 940 396 882.5 297.5 c 128,-1,27
 825 199 825 199 726.5 141.5 c 128,-1,16
 628 84 628 84 512 84 c 128,-1,17
553 448 m 2,28,29
 533 428 533 428 543.5 402 c 128,-1,30
 554 376 554 376 582 376 c 0,31,32
 599 376 599 376 612 388 c 2,33,-1
 776 546 l 2,34,35
 789 558 789 558 789 575.5 c 0,36,37
 789 575.752911449 789 575.752911449 788.997490514 576.004883048 c 128,-1,38
 789.000003134 576.251888732 789.000003134 576.251888732 789 576.5 c 0,39,40
 789 593.552604337 789 593.552604337 777.130966748 605.857595373 c 0,41,42
 777.065663025 605.928865056 777.065663025 605.928865056 777 606 c 2,43,-1
 613 776 l 2,44,45
 593 796 593 796 566.5 785.5 c 128,-1,46
 540 775 540 775 540 747 c 0,47,48
 540 730 540 730 552 718 c 2,49,-1
 647.464285714 619 l 1,50,-1
 409 619 l 2,51,52
 405 619 405 619 398 618.5 c 128,-1,53
 391 618 391 618 374 614.5 c 128,-1,54
 357 611 357 611 342 605 c 128,-1,55
 327 599 327 599 308 586.5 c 128,-1,56
 289 574 289 574 275 557 c 0,57,58
 235 510 235 510 235 436 c 0,59,60
 235 390 235 390 248 352.5 c 128,-1,61
 261 315 261 315 281 294 c 128,-1,62
 301 273 301 273 325.5 259 c 128,-1,63
 350 245 350 245 370.5 240 c 128,-1,64
 391 235 391 235 409 235 c 2,65,-1
 446 235 l 2,66,67
 463 235 463 235 475.5 247.5 c 128,-1,68
 488 260 488 260 488 277 c 128,-1,69
 488 294 488 294 476 306.5 c 128,-1,70
 464 319 464 319 446 319 c 2,71,-1
 409 319 l 2,72,73
 407 319 407 319 403 319.5 c 128,-1,74
 399 320 399 320 389.5 322.5 c 128,-1,75
 380 325 380 325 371 329.5 c 128,-1,76
 362 334 362 334 351.5 343 c 128,-1,77
 341 352 341 352 334 365 c 0,78,79
 319 393 319 393 319 436 c 0,80,81
 319 513 319 513 385 531 c 0,82,83
 398 534 398 534 409 535 c 2,84,-1
 642.676923077 535 l 1,85,-1
 553 448 l 2,28,29
EndSplineSet
EndChar
